<svg width="16" height="154" viewBox="0 0 16 154" fill="none" xmlns="http://www.w3.org/2000/svg">
<path d="M9 1.00464C9 0.452354 8.55228 0.00463865 8 0.00463867C7.44772 0.0046387 7 0.452354 7 1.00464L9 1.00464ZM7.2929 153.712C7.68342 154.102 8.31659 154.102 8.70711 153.712L15.0711 147.348C15.4616 146.957 15.4616 146.324 15.0711 145.934C14.6805 145.543 14.0474 145.543 13.6569 145.934L8.00001 151.59L2.34315 145.934C1.95263 145.543 1.31946 145.543 0.928939 145.934C0.538414 146.324 0.538414 146.957 0.928939 147.348L7.2929 153.712ZM7 5.75464C7 6.30692 7.44772 6.75464 8 6.75464C8.55229 6.75464 9 6.30692 9 5.75464L7 5.75464ZM9 15.2546C9 14.7024 8.55229 14.2546 8 14.2546C7.44772 14.2546 7 14.7024 7 15.2546L9 15.2546ZM7 24.7546C7 25.3069 7.44772 25.7546 8 25.7546C8.55229 25.7546 9 25.3069 9 24.7546L7 24.7546ZM9 34.2546C9 33.7024 8.55229 33.2546 8 33.2546C7.44772 33.2546 7 33.7024 7 34.2546L9 34.2546ZM7 43.7546C7 44.3069 7.44772 44.7546 8 44.7546C8.55229 44.7546 9 44.3069 9 43.7546L7 43.7546ZM9 53.2546C9 52.7024 8.55229 52.2546 8 52.2546C7.44772 52.2546 7 52.7024 7 53.2546L9 53.2546ZM7 62.7546C7 63.3069 7.44772 63.7546 8 63.7546C8.55229 63.7546 9 63.3069 9 62.7546L7 62.7546ZM9 72.2546C9 71.7024 8.55229 71.2546 8 71.2546C7.44772 71.2546 7 71.7024 7 72.2546L9 72.2546ZM7 81.7546C7 82.3069 7.44772 82.7546 8 82.7546C8.55229 82.7546 9 82.3069 9 81.7546L7 81.7546ZM9 91.2546C9 90.7024 8.55229 90.2546 8 90.2546C7.44772 90.2546 7 90.7024 7 91.2546L9 91.2546ZM7 100.755C7 101.307 7.44772 101.755 8 101.755C8.55229 101.755 9 101.307 9 100.755L7 100.755ZM9 110.255C9 109.702 8.55229 109.255 8 109.255C7.44772 109.255 7 109.702 7 110.255L9 110.255ZM7.00001 119.755C7.00001 120.307 7.44772 120.755 8.00001 120.755C8.55229 120.755 9.00001 120.307 9.00001 119.755L7.00001 119.755ZM9.00001 129.255C9.00001 128.702 8.55229 128.255 8.00001 128.255C7.44772 128.255 7.00001 128.702 7.00001 129.255L9.00001 129.255ZM7.00001 138.755C7.00001 139.307 7.44772 139.755 8.00001 139.755C8.55229 139.755 9.00001 139.307 9.00001 138.755L7.00001 138.755ZM9.00001 148.255C9.00001 147.702 8.55229 147.255 8.00001 147.255C7.44772 147.255 7.00001 147.702 7.00001 148.255L9.00001 148.255ZM8 1.00464L7 1.00464L7 5.75464L8 5.75464L9 5.75464L9 1.00464L8 1.00464ZM8 15.2546L7 15.2546L7 24.7546L8 24.7546L9 24.7546L9 15.2546L8 15.2546ZM8 34.2546L7 34.2546L7 43.7546L8 43.7546L9 43.7546L9 34.2546L8 34.2546ZM8 53.2546L7 53.2546L7 62.7546L8 62.7546L9 62.7546L9 53.2546L8 53.2546ZM8 72.2546L7 72.2546L7 81.7546L8 81.7546L9 81.7546L9 72.2546L8 72.2546ZM8 91.2546L7 91.2546L7 100.755L8 100.755L9 100.755L9 91.2546L8 91.2546ZM8 110.255L7 110.255L7.00001 119.755L8.00001 119.755L9.00001 119.755L9 110.255L8 110.255ZM8.00001 129.255L7.00001 129.255L7.00001 138.755L8.00001 138.755L9.00001 138.755L9.00001 129.255L8.00001 129.255ZM8.00001 148.255L7.00001 148.255L7.00001 153.005L8.00001 153.005L9.00001 153.005L9.00001 148.255L8.00001 148.255Z" fill="url(#paint0_linear_4924_1040)" fill-opacity="0.6"/>
<defs>
<linearGradient id="paint0_linear_4924_1040" x1="7.95534" y1="1.00464" x2="17.6253" y2="1.62233" gradientUnits="userSpaceOnUse">
<stop stop-color="#E7912B"/>
<stop offset="0.504808" stop-color="#D83D69"/>
<stop offset="1" stop-color="#2C4B9B"/>
</linearGradient>
</defs>
</svg>
