<svg width="16" height="223" viewBox="0 0 16 223" fill="none" xmlns="http://www.w3.org/2000/svg">
<path d="M9 1C9 0.447715 8.55228 -2.41411e-08 8 0C7.44772 2.41411e-08 7 0.447715 7 1L9 1ZM7.2929 222.707C7.68343 223.098 8.31659 223.098 8.70712 222.707L15.0711 216.343C15.4616 215.953 15.4616 215.319 15.0711 214.929C14.6806 214.538 14.0474 214.538 13.6569 214.929L8.00001 220.586L2.34316 214.929C1.95263 214.538 1.31947 214.538 0.928942 214.929C0.538417 215.319 0.538417 215.953 0.928942 216.343L7.2929 222.707ZM7 6.02273C7 6.57501 7.44772 7.02273 8 7.02273C8.55229 7.02273 9 6.57501 9 6.02273L7 6.02273ZM9 16.0682C9 15.5159 8.55229 15.0682 8 15.0682C7.44772 15.0682 7 15.5159 7 16.0682L9 16.0682ZM7 26.1136C7 26.6659 7.44772 27.1136 8 27.1136C8.55229 27.1136 9 26.6659 9 26.1136L7 26.1136ZM9 36.1591C9 35.6068 8.55229 35.1591 8 35.1591C7.44772 35.1591 7 35.6068 7 36.1591L9 36.1591ZM7 46.2045C7 46.7568 7.44772 47.2045 8 47.2045C8.55229 47.2045 9 46.7568 9 46.2045L7 46.2045ZM9 56.25C9 55.6977 8.55229 55.25 8 55.25C7.44772 55.25 7 55.6977 7 56.25L9 56.25ZM7 66.2955C7 66.8477 7.44772 67.2955 8 67.2955C8.55229 67.2955 9 66.8477 9 66.2955L7 66.2955ZM9 76.3409C9 75.7886 8.55229 75.3409 8 75.3409C7.44772 75.3409 7 75.7886 7 76.3409L9 76.3409ZM7 86.3864C7 86.9387 7.44772 87.3864 8 87.3864C8.55229 87.3864 9 86.9387 9 86.3864L7 86.3864ZM9 96.4318C9 95.8795 8.55229 95.4318 8 95.4318C7.44772 95.4318 7 95.8795 7 96.4318L9 96.4318ZM7 106.477C7 107.03 7.44772 107.477 8 107.477C8.55229 107.477 9 107.03 9 106.477L7 106.477ZM9.00001 116.523C9.00001 115.97 8.55229 115.523 8.00001 115.523C7.44772 115.523 7.00001 115.97 7.00001 116.523L9.00001 116.523ZM7.00001 126.568C7.00001 127.12 7.44772 127.568 8.00001 127.568C8.55229 127.568 9.00001 127.12 9.00001 126.568L7.00001 126.568ZM9.00001 136.614C9.00001 136.061 8.55229 135.614 8.00001 135.614C7.44772 135.614 7.00001 136.061 7.00001 136.614L9.00001 136.614ZM7.00001 146.659C7.00001 147.211 7.44772 147.659 8.00001 147.659C8.55229 147.659 9.00001 147.211 9.00001 146.659L7.00001 146.659ZM9.00001 156.705C9.00001 156.152 8.55229 155.705 8.00001 155.705C7.44772 155.705 7.00001 156.152 7.00001 156.705L9.00001 156.705ZM7.00001 166.75C7.00001 167.302 7.44772 167.75 8.00001 167.75C8.55229 167.75 9.00001 167.302 9.00001 166.75L7.00001 166.75ZM9.00001 176.795C9.00001 176.243 8.55229 175.795 8.00001 175.795C7.44772 175.795 7.00001 176.243 7.00001 176.795L9.00001 176.795ZM7.00001 186.841C7.00001 187.393 7.44772 187.841 8.00001 187.841C8.55229 187.841 9.00001 187.393 9.00001 186.841L7.00001 186.841ZM9.00001 196.886C9.00001 196.334 8.55229 195.886 8.00001 195.886C7.44772 195.886 7.00001 196.334 7.00001 196.886L9.00001 196.886ZM7.00001 206.932C7.00001 207.484 7.44772 207.932 8.00001 207.932C8.55229 207.932 9.00001 207.484 9.00001 206.932L7.00001 206.932ZM9.00001 216.977C9.00001 216.425 8.55229 215.977 8.00001 215.977C7.44772 215.977 7.00001 216.425 7.00001 216.977L9.00001 216.977ZM8 1L7 1L7 6.02273L8 6.02273L9 6.02273L9 1L8 1ZM8 16.0682L7 16.0682L7 26.1136L8 26.1136L9 26.1136L9 16.0682L8 16.0682ZM8 36.1591L7 36.1591L7 46.2045L8 46.2045L9 46.2045L9 36.1591L8 36.1591ZM8 56.25L7 56.25L7 66.2955L8 66.2955L9 66.2955L9 56.25L8 56.25ZM8 76.3409L7 76.3409L7 86.3864L8 86.3864L9 86.3864L9 76.3409L8 76.3409ZM8 96.4318L7 96.4318L7 106.477L8 106.477L9 106.477L9 96.4318L8 96.4318ZM8.00001 116.523L7.00001 116.523L7.00001 126.568L8.00001 126.568L9.00001 126.568L9.00001 116.523L8.00001 116.523ZM8.00001 136.614L7.00001 136.614L7.00001 146.659L8.00001 146.659L9.00001 146.659L9.00001 136.614L8.00001 136.614ZM8.00001 156.705L7.00001 156.705L7.00001 166.75L8.00001 166.75L9.00001 166.75L9.00001 156.705L8.00001 156.705ZM8.00001 176.795L7.00001 176.795L7.00001 186.841L8.00001 186.841L9.00001 186.841L9.00001 176.795L8.00001 176.795ZM8.00001 196.886L7.00001 196.886L7.00001 206.932L8.00001 206.932L9.00001 206.932L9.00001 196.886L8.00001 196.886ZM8.00001 216.977L7.00001 216.977L7.00001 222L8.00001 222L9.00001 222L9.00001 216.977L8.00001 216.977Z" fill="url(#paint0_linear_4924_1041)" fill-opacity="0.6"/>
<defs>
<linearGradient id="paint0_linear_4924_1041" x1="7.95534" y1="0.999998" x2="17.646" y2="1.42575" gradientUnits="userSpaceOnUse">
<stop stop-color="#E7912B"/>
<stop offset="0.504808" stop-color="#D83D69"/>
<stop offset="1" stop-color="#2C4B9B"/>
</linearGradient>
</defs>
</svg>
