<svg width="16" height="561" viewBox="0 0 16 561" fill="none" xmlns="http://www.w3.org/2000/svg">
<path d="M9 1.00439C9 0.45211 8.55228 0.00439451 8 0.00439453C7.44772 0.00439456 7 0.45211 7 1.00439L9 1.00439ZM7.29292 560.712C7.68344 561.102 8.31661 561.102 8.70713 560.712L15.0711 554.348C15.4616 553.957 15.4616 553.324 15.0711 552.933C14.6806 552.543 14.0474 552.543 13.6569 552.933L8.00002 558.59L2.34317 552.933C1.95265 552.543 1.31948 552.543 0.928956 552.933C0.538432 553.324 0.538432 553.957 0.928956 554.348L7.29292 560.712ZM7 5.99547C7 6.54775 7.44772 6.99547 8 6.99547C8.55229 6.99547 9 6.54775 9 5.99547L7 5.99547ZM9 15.9776C9 15.4253 8.55229 14.9776 8 14.9776C7.44772 14.9776 7 15.4253 7 15.9776L9 15.9776ZM7 25.9598C7 26.512 7.44772 26.9598 8 26.9598C8.55229 26.9598 9 26.512 9 25.9598L7 25.9598ZM9 35.9419C9 35.3896 8.55229 34.9419 8 34.9419C7.44772 34.9419 7 35.3896 7 35.9419L9 35.9419ZM7 45.924C7 46.4763 7.44772 46.924 8 46.924C8.55229 46.924 9 46.4763 9 45.924L7 45.924ZM9 55.9062C9 55.3539 8.55229 54.9062 8 54.9062C7.44772 54.9062 7 55.3539 7 55.9062L9 55.9062ZM7 65.8883C7 66.4406 7.44772 66.8883 8 66.8883C8.55229 66.8883 9 66.4406 9 65.8883L7 65.8883ZM9 75.8705C9 75.3182 8.55229 74.8705 8 74.8705C7.44772 74.8705 7 75.3182 7 75.8705L9 75.8705ZM7 85.8526C7 86.4049 7.44772 86.8526 8 86.8526C8.55229 86.8526 9 86.4049 9 85.8526L7 85.8526ZM9 95.8347C9 95.2825 8.55229 94.8347 8 94.8347C7.44772 94.8347 7 95.2825 7 95.8347L9 95.8347ZM7 105.817C7 106.369 7.44772 106.817 8 106.817C8.55229 106.817 9 106.369 9 105.817L7 105.817ZM9.00001 115.799C9 115.247 8.55229 114.799 8 114.799C7.44772 114.799 7 115.247 7.00001 115.799L9.00001 115.799ZM7.00001 125.781C7.00001 126.333 7.44772 126.781 8.00001 126.781C8.55229 126.781 9.00001 126.333 9.00001 125.781L7.00001 125.781ZM9.00001 135.763C9.00001 135.211 8.55229 134.763 8.00001 134.763C7.44772 134.763 7.00001 135.211 7.00001 135.763L9.00001 135.763ZM7.00001 145.745C7.00001 146.298 7.44772 146.745 8.00001 146.745C8.55229 146.745 9.00001 146.298 9.00001 145.745L7.00001 145.745ZM9.00001 155.728C9.00001 155.175 8.55229 154.728 8.00001 154.728C7.44772 154.728 7.00001 155.175 7.00001 155.728L9.00001 155.728ZM7.00001 165.71C7.00001 166.262 7.44772 166.71 8.00001 166.71C8.55229 166.71 9.00001 166.262 9.00001 165.71L7.00001 165.71ZM9.00001 175.692C9.00001 175.14 8.55229 174.692 8.00001 174.692C7.44772 174.692 7.00001 175.14 7.00001 175.692L9.00001 175.692ZM7.00001 185.674C7.00001 186.226 7.44772 186.674 8.00001 186.674C8.55229 186.674 9.00001 186.226 9.00001 185.674L7.00001 185.674ZM9.00001 195.656C9.00001 195.104 8.55229 194.656 8.00001 194.656C7.44772 194.656 7.00001 195.104 7.00001 195.656L9.00001 195.656ZM7.00001 205.638C7.00001 206.191 7.44772 206.638 8.00001 206.638C8.55229 206.638 9.00001 206.191 9.00001 205.638L7.00001 205.638ZM9.00001 215.62C9.00001 215.068 8.55229 214.62 8.00001 214.62C7.44772 214.62 7.00001 215.068 7.00001 215.62L9.00001 215.62ZM7.00001 225.603C7.00001 226.155 7.44773 226.603 8.00001 226.603C8.55229 226.603 9.00001 226.155 9.00001 225.603L7.00001 225.603ZM9.00001 235.585C9.00001 235.033 8.55229 234.585 8.00001 234.585C7.44773 234.585 7.00001 235.033 7.00001 235.585L9.00001 235.585ZM7.00001 245.567C7.00001 246.119 7.44773 246.567 8.00001 246.567C8.5523 246.567 9.00001 246.119 9.00001 245.567L7.00001 245.567ZM9.00001 255.549C9.00001 254.997 8.5523 254.549 8.00001 254.549C7.44773 254.549 7.00001 254.997 7.00001 255.549L9.00001 255.549ZM7.00001 265.531C7.00001 266.084 7.44773 266.531 8.00001 266.531C8.5523 266.531 9.00001 266.084 9.00001 265.531L7.00001 265.531ZM9.00001 275.513C9.00001 274.961 8.5523 274.513 8.00001 274.513C7.44773 274.513 7.00001 274.961 7.00001 275.513L9.00001 275.513ZM7.00001 285.496C7.00001 286.048 7.44773 286.496 8.00001 286.496C8.5523 286.496 9.00001 286.048 9.00001 285.496L7.00001 285.496ZM9.00001 295.478C9.00001 294.925 8.5523 294.478 8.00001 294.478C7.44773 294.478 7.00001 294.925 7.00001 295.478L9.00001 295.478ZM7.00001 305.46C7.00001 306.012 7.44773 306.46 8.00001 306.46C8.5523 306.46 9.00001 306.012 9.00001 305.46L7.00001 305.46ZM9.00001 315.442C9.00001 314.89 8.5523 314.442 8.00001 314.442C7.44773 314.442 7.00001 314.89 7.00001 315.442L9.00001 315.442ZM7.00001 325.424C7.00001 325.976 7.44773 326.424 8.00001 326.424C8.5523 326.424 9.00001 325.976 9.00001 325.424L7.00001 325.424ZM9.00001 335.406C9.00001 334.854 8.5523 334.406 8.00001 334.406C7.44773 334.406 7.00001 334.854 7.00001 335.406L9.00001 335.406ZM7.00002 345.388C7.00002 345.941 7.44773 346.388 8.00002 346.388C8.5523 346.388 9.00002 345.941 9.00002 345.388L7.00002 345.388ZM9.00002 355.371C9.00002 354.818 8.5523 354.371 8.00002 354.371C7.44773 354.371 7.00002 354.818 7.00002 355.371L9.00002 355.371ZM7.00002 365.353C7.00002 365.905 7.44773 366.353 8.00002 366.353C8.5523 366.353 9.00002 365.905 9.00002 365.353L7.00002 365.353ZM9.00002 375.335C9.00002 374.783 8.5523 374.335 8.00002 374.335C7.44773 374.335 7.00002 374.783 7.00002 375.335L9.00002 375.335ZM7.00002 385.317C7.00002 385.869 7.44773 386.317 8.00002 386.317C8.5523 386.317 9.00002 385.869 9.00002 385.317L7.00002 385.317ZM9.00002 395.299C9.00002 394.747 8.5523 394.299 8.00002 394.299C7.44773 394.299 7.00002 394.747 7.00002 395.299L9.00002 395.299ZM7.00002 405.281C7.00002 405.834 7.44773 406.281 8.00002 406.281C8.5523 406.281 9.00002 405.834 9.00002 405.281L7.00002 405.281ZM9.00002 415.263C9.00002 414.711 8.5523 414.263 8.00002 414.263C7.44773 414.263 7.00002 414.711 7.00002 415.263L9.00002 415.263ZM7.00002 425.246C7.00002 425.798 7.44773 426.246 8.00002 426.246C8.5523 426.246 9.00002 425.798 9.00002 425.246L7.00002 425.246ZM9.00002 435.228C9.00002 434.675 8.5523 434.228 8.00002 434.228C7.44773 434.228 7.00002 434.675 7.00002 435.228L9.00002 435.228ZM7.00002 445.21C7.00002 445.762 7.44773 446.21 8.00002 446.21C8.5523 446.21 9.00002 445.762 9.00002 445.21L7.00002 445.21ZM9.00002 455.192C9.00002 454.64 8.5523 454.192 8.00002 454.192C7.44774 454.192 7.00002 454.64 7.00002 455.192L9.00002 455.192ZM7.00002 465.174C7.00002 465.726 7.44774 466.174 8.00002 466.174C8.55231 466.174 9.00002 465.726 9.00002 465.174L7.00002 465.174ZM9.00002 475.156C9.00002 474.604 8.55231 474.156 8.00002 474.156C7.44774 474.156 7.00002 474.604 7.00002 475.156L9.00002 475.156ZM7.00002 485.138C7.00002 485.691 7.44774 486.138 8.00002 486.138C8.55231 486.138 9.00002 485.691 9.00002 485.138L7.00002 485.138ZM9.00002 495.121C9.00002 494.568 8.55231 494.121 8.00002 494.121C7.44774 494.121 7.00002 494.568 7.00002 495.121L9.00002 495.121ZM7.00002 505.103C7.00002 505.655 7.44774 506.103 8.00002 506.103C8.55231 506.103 9.00002 505.655 9.00002 505.103L7.00002 505.103ZM9.00002 515.085C9.00002 514.533 8.55231 514.085 8.00002 514.085C7.44774 514.085 7.00002 514.533 7.00002 515.085L9.00002 515.085ZM7.00002 525.067C7.00002 525.619 7.44774 526.067 8.00002 526.067C8.55231 526.067 9.00002 525.619 9.00002 525.067L7.00002 525.067ZM9.00002 535.049C9.00002 534.497 8.55231 534.049 8.00002 534.049C7.44774 534.049 7.00002 534.497 7.00002 535.049L9.00002 535.049ZM7.00002 545.031C7.00002 545.584 7.44774 546.031 8.00002 546.031C8.55231 546.031 9.00002 545.584 9.00002 545.031L7.00002 545.031ZM9.00002 555.013C9.00002 554.461 8.55231 554.013 8.00002 554.013C7.44774 554.013 7.00002 554.461 7.00002 555.013L9.00002 555.013ZM8 1.00439L7 1.00439L7 5.99547L8 5.99547L9 5.99547L9 1.00439L8 1.00439ZM8 15.9776L7 15.9776L7 25.9598L8 25.9598L9 25.9598L9 15.9776L8 15.9776ZM8 35.9419L7 35.9419L7 45.924L8 45.924L9 45.924L9 35.9419L8 35.9419ZM8 55.9062L7 55.9062L7 65.8883L8 65.8883L9 65.8883L9 55.9062L8 55.9062ZM8 75.8705L7 75.8705L7 85.8526L8 85.8526L9 85.8526L9 75.8705L8 75.8705ZM8 95.8347L7 95.8347L7 105.817L8 105.817L9 105.817L9 95.8347L8 95.8347ZM8.00001 115.799L7.00001 115.799L7.00001 125.781L8.00001 125.781L9.00001 125.781L9.00001 115.799L8.00001 115.799ZM8.00001 135.763L7.00001 135.763L7.00001 145.745L8.00001 145.745L9.00001 145.745L9.00001 135.763L8.00001 135.763ZM8.00001 155.728L7.00001 155.728L7.00001 165.71L8.00001 165.71L9.00001 165.71L9.00001 155.728L8.00001 155.728ZM8.00001 175.692L7.00001 175.692L7.00001 185.674L8.00001 185.674L9.00001 185.674L9.00001 175.692L8.00001 175.692ZM8.00001 195.656L7.00001 195.656L7.00001 205.638L8.00001 205.638L9.00001 205.638L9.00001 195.656L8.00001 195.656ZM8.00001 215.62L7.00001 215.62L7.00001 225.603L8.00001 225.603L9.00001 225.603L9.00001 215.62L8.00001 215.62ZM8.00001 235.585L7.00001 235.585L7.00001 245.567L8.00001 245.567L9.00001 245.567L9.00001 235.585L8.00001 235.585ZM8.00001 255.549L7.00001 255.549L7.00001 265.531L8.00001 265.531L9.00001 265.531L9.00001 255.549L8.00001 255.549ZM8.00001 275.513L7.00001 275.513L7.00001 285.496L8.00001 285.496L9.00001 285.496L9.00001 275.513L8.00001 275.513ZM8.00001 295.478L7.00001 295.478L7.00001 305.46L8.00001 305.46L9.00001 305.46L9.00001 295.478L8.00001 295.478ZM8.00001 315.442L7.00001 315.442L7.00001 325.424L8.00001 325.424L9.00001 325.424L9.00001 315.442L8.00001 315.442ZM8.00001 335.406L7.00001 335.406L7.00002 345.388L8.00002 345.388L9.00002 345.388L9.00001 335.406L8.00001 335.406ZM8.00002 355.371L7.00002 355.371L7.00002 365.353L8.00002 365.353L9.00002 365.353L9.00002 355.371L8.00002 355.371ZM8.00002 375.335L7.00002 375.335L7.00002 385.317L8.00002 385.317L9.00002 385.317L9.00002 375.335L8.00002 375.335ZM8.00002 395.299L7.00002 395.299L7.00002 405.281L8.00002 405.281L9.00002 405.281L9.00002 395.299L8.00002 395.299ZM8.00002 415.263L7.00002 415.263L7.00002 425.246L8.00002 425.246L9.00002 425.246L9.00002 415.263L8.00002 415.263ZM8.00002 435.228L7.00002 435.228L7.00002 445.21L8.00002 445.21L9.00002 445.21L9.00002 435.228L8.00002 435.228ZM8.00002 455.192L7.00002 455.192L7.00002 465.174L8.00002 465.174L9.00002 465.174L9.00002 455.192L8.00002 455.192ZM8.00002 475.156L7.00002 475.156L7.00002 485.138L8.00002 485.138L9.00002 485.138L9.00002 475.156L8.00002 475.156ZM8.00002 495.121L7.00002 495.121L7.00002 505.103L8.00002 505.103L9.00002 505.103L9.00002 495.121L8.00002 495.121ZM8.00002 515.085L7.00002 515.085L7.00002 525.067L8.00002 525.067L9.00002 525.067L9.00002 515.085L8.00002 515.085ZM8.00002 535.049L7.00002 535.049L7.00002 545.031L8.00002 545.031L9.00002 545.031L9.00002 535.049L8.00002 535.049ZM8.00002 555.013L7.00002 555.013L7.00002 560.004L8.00002 560.004L9.00002 560.004L9.00002 555.013L8.00002 555.013Z" fill="url(#paint0_linear_4924_1037)"/>
<defs>
<linearGradient id="paint0_linear_4924_1037" x1="7.95534" y1="1.00439" x2="17.6618" y2="1.17298" gradientUnits="userSpaceOnUse">
<stop stop-color="#E7912B"/>
<stop offset="0.504808" stop-color="#D83D69"/>
<stop offset="1" stop-color="#2C4B9B"/>
</linearGradient>
</defs>
</svg>
