<svg width="16" height="47" viewBox="0 0 16 47" fill="none" xmlns="http://www.w3.org/2000/svg">
<path d="M7.29289 46.7071C7.68342 47.0976 8.31658 47.0976 8.70711 46.7071L15.0711 40.3431C15.4616 39.9526 15.4616 39.3195 15.0711 38.9289C14.6805 38.5384 14.0474 38.5384 13.6569 38.9289L8 44.5858L2.34315 38.9289C1.95262 38.5384 1.31946 38.5384 0.928932 38.9289C0.538408 39.3195 0.538408 39.9526 0.928932 40.3431L7.29289 46.7071ZM9 1C9 0.447712 8.55229 2.41412e-08 8 0C7.44772 -2.41412e-08 7 0.447712 7 1L9 1ZM9 40.375C9 39.8227 8.55229 39.375 8 39.375C7.44772 39.375 7 39.8227 7 40.375L9 40.375ZM7 29.125C7 29.6773 7.44772 30.125 8 30.125C8.55229 30.125 9 29.6773 9 29.125L7 29.125ZM9 17.875C9 17.3227 8.55229 16.875 8 16.875C7.44772 16.875 7 17.3227 7 17.875L9 17.875ZM7 6.625C7 7.17728 7.44772 7.625 8 7.625C8.55229 7.625 9 7.17728 9 6.625L7 6.625ZM8 46L9 46L9 40.375L8 40.375L7 40.375L7 46L8 46ZM8 29.125L9 29.125L9 17.875L8 17.875L7 17.875L7 29.125L8 29.125ZM8 6.625L9 6.625L9 1L8 1L7 1L7 6.625L8 6.625Z" fill="url(#paint0_linear_4924_1043)" fill-opacity="0.6"/>
<defs>
<linearGradient id="paint0_linear_4924_1043" x1="8.04466" y1="46" x2="-1.23282" y2="43.9983" gradientUnits="userSpaceOnUse">
<stop stop-color="#E7912B"/>
<stop offset="0.504808" stop-color="#D83D69"/>
<stop offset="1" stop-color="#2C4B9B"/>
</linearGradient>
</defs>
</svg>
