<svg width="16" height="108" viewBox="0 0 16 108" fill="none" xmlns="http://www.w3.org/2000/svg">
<path d="M9 1.00439C9 0.45211 8.55228 0.00439456 8 0.00439453C7.44772 0.00439451 7 0.45211 7 1.00439L9 1.00439ZM7.29289 107.712C7.68341 108.102 8.31658 108.102 8.7071 107.712L15.0711 101.348C15.4616 100.957 15.4616 100.324 15.0711 99.9333C14.6805 99.5428 14.0474 99.5428 13.6568 99.9333L8 105.59L2.34314 99.9333C1.95262 99.5428 1.31945 99.5428 0.928928 99.9333C0.538403 100.324 0.538403 100.957 0.928928 101.348L7.29289 107.712ZM7 6.30439C7 6.85668 7.44771 7.30439 8 7.30439C8.55228 7.30439 9 6.85668 9 6.30439L7 6.30439ZM9 16.9044C9 16.3521 8.55228 15.9044 8 15.9044C7.44771 15.9044 7 16.3521 7 16.9044L9 16.9044ZM7 27.5044C7 28.0567 7.44771 28.5044 8 28.5044C8.55228 28.5044 9 28.0567 9 27.5044L7 27.5044ZM9 38.1044C9 37.5521 8.55228 37.1044 8 37.1044C7.44771 37.1044 7 37.5521 7 38.1044L9 38.1044ZM7 48.7044C7 49.2567 7.44771 49.7044 8 49.7044C8.55228 49.7044 9 49.2567 9 48.7044L7 48.7044ZM9 59.3044C9 58.7521 8.55228 58.3044 8 58.3044C7.44771 58.3044 7 58.7521 7 59.3044L9 59.3044ZM7 69.9044C7 70.4567 7.44771 70.9044 8 70.9044C8.55228 70.9044 9 70.4567 9 69.9044L7 69.9044ZM9 80.5044C9 79.9521 8.55228 79.5044 8 79.5044C7.44771 79.5044 7 79.9521 7 80.5044L9 80.5044ZM7 91.1044C7 91.6567 7.44771 92.1044 8 92.1044C8.55228 92.1044 9 91.6567 9 91.1044L7 91.1044ZM9 101.704C9 101.152 8.55228 100.704 8 100.704C7.44771 100.704 7 101.152 7 101.704L9 101.704ZM8 1.00439L7 1.00439L7 6.30439L8 6.30439L9 6.30439L9 1.00439L8 1.00439ZM8 16.9044L7 16.9044L7 27.5044L8 27.5044L9 27.5044L9 16.9044L8 16.9044ZM8 38.1044L7 38.1044L7 48.7044L8 48.7044L9 48.7044L9 38.1044L8 38.1044ZM8 59.3044L7 59.3044L7 69.9044L8 69.9044L9 69.9044L9 59.3044L8 59.3044ZM8 80.5044L7 80.5044L7 91.1044L8 91.1044L9 91.1044L9 80.5044L8 80.5044ZM8 101.704L7 101.704L7 107.004L8 107.004L9 107.004L9 101.704L8 101.704Z" fill="url(#paint0_linear_4924_1036)" fill-opacity="0.6"/>
<defs>
<linearGradient id="paint0_linear_4924_1036" x1="7.95535" y1="98.9741" x2="-0.081176" y2="98.3135" gradientUnits="userSpaceOnUse">
<stop stop-color="#E7912B"/>
<stop offset="0.504808" stop-color="#D83D69"/>
<stop offset="1" stop-color="#2C4B9B"/>
</linearGradient>
</defs>
</svg>
