<svg width="239" height="35" viewBox="0 0 239 35" fill="none" xmlns="http://www.w3.org/2000/svg">
<path d="M98.5092 180.3C104.295 179.709 111.091 177.852 118.683 174.872C177.068 152.597 277.454 70.9172 277.454 70.9172C277.454 70.9172 276.966 70.6488 275.914 70.4601C242.803 85.6891 202.755 81.2212 175.152 56.0095C171.072 52.2024 167.42 48.1103 164.196 43.7331C162.495 40.7143 160.579 37.8381 158.45 35.1044C152.198 27.1088 144.877 19.8259 135.551 14.1737C119.34 4.21111 100.763 -0.0247201 82.645 1.06821C33.5791 7.64692 -3.115 51.3597 0.221876 100.442C3.69558 149.729 47.7066 185.662 98.5092 180.3Z" fill="url(#paint0_linear_5207_909)" fill-opacity="0.5"/>
<defs>
<linearGradient id="paint0_linear_5207_909" x1="272.745" y1="156.077" x2="-31.6051" y2="34.6454" gradientUnits="userSpaceOnUse">
<stop stop-color="#E99826"/>
<stop offset="0.4698" stop-color="#DA3D68"/>
<stop offset="0.8776" stop-color="#4B4193"/>
</linearGradient>
</defs>
</svg>
