<svg width="309" height="124" viewBox="0 0 309 124" fill="none" xmlns="http://www.w3.org/2000/svg">
<path d="M-52.514 103.744C-67.1422 63.709 -48.1344 19.8741 -10.2035 5.40307C15.9896 -4.53252 47.5689 2.79311 66.0665 22.1782C71.4246 27.8202 74.8618 33.6108 77.1229 37.9918C78.7497 41.1669 81.4403 45.9512 85.1839 51.6635C93.2236 63.9729 110.766 91.1248 142.001 103.497C155.779 108.87 168.491 110.07 172.65 110.376C179.466 110.858 183.809 110.605 202.375 109.797C214.636 109.231 224.476 108.771 230.127 108.525C230.321 108.647 230.321 108.647 230.28 108.486C261.721 106.956 292.072 126.735 303.926 159.1C307.539 168.778 309.078 178.644 308.921 188.259C262.405 153.116 174.825 138.715 70.0018 148.208L69.8485 148.247C63.626 148.81 58.7113 149.381 55.2579 149.92C48.6166 150.761 45.0509 151.5 38.2153 152.22C33.9137 152.634 30.4193 153.013 28.1509 153.079C27.9977 153.118 27.6912 153.197 27.5379 153.236C24.8098 153.419 22.0816 153.603 18.965 153.544C13.58 153.551 10.8518 153.734 7.95974 153.276C-20.5512 150.296 -38.4785 128.03 -40.9535 124.729C-43.1113 122.032 -48.6956 114.225 -52.514 103.744Z" fill="url(#paint0_linear_5207_921)" fill-opacity="0.1"/>
<defs>
<linearGradient id="paint0_linear_5207_921" x1="264.206" y1="53.0469" x2="-32.0737" y2="161.793" gradientUnits="userSpaceOnUse">
<stop stop-color="#E99826"/>
<stop offset="0.4698" stop-color="#DA3D68"/>
<stop offset="1" stop-color="#4B4193"/>
</linearGradient>
</defs>
</svg>
