<svg width="149" height="234" viewBox="0 0 149 234" fill="none" xmlns="http://www.w3.org/2000/svg">
<path d="M68.5335 -87.912C111.135 -89.282 146.824 -57.5154 148.703 -16.9613C149.946 11.0253 133.109 38.728 108.91 50.233C101.875 53.5572 95.3001 55.0104 90.4316 55.7875C86.9069 56.3393 81.521 57.3982 74.9243 59.167C60.7177 62.9524 29.4409 71.1203 7.9188 96.9175C-1.49486 108.323 -6.61132 120.022 -8.20304 123.876C-10.7936 130.199 -11.9111 134.403 -16.9521 152.29C-20.2506 164.113 -22.8915 173.603 -24.4257 179.047C-24.6018 179.194 -24.6018 179.194 -24.4365 179.205C-32.8191 209.546 -61.0995 232.187 -95.5489 233.321C-105.871 233.725 -115.723 232.101 -124.806 228.944C-76.8759 195.756 -35.8006 117.076 -12.0251 14.545L-12.0143 14.3872C-10.6023 8.3009 -9.60698 3.45439 -9.03926 0.00546896C-7.76012 -6.5655 -7.34688 -10.1835 -5.89168 -16.901C-4.93951 -21.1163 -4.20653 -24.5539 -3.55978 -26.7292C-3.549 -26.887 -3.52744 -27.2026 -3.51666 -27.3604C-2.83757 -30.0091 -2.15848 -32.6577 -1.12728 -35.5994C0.550668 -40.7163 1.22977 -43.365 2.56996 -45.9685C14.3192 -72.1163 41.0761 -82.1783 44.9852 -83.4966C48.2225 -84.7022 57.3846 -87.564 68.5335 -87.912Z" fill="url(#paint0_linear_5207_912)" fill-opacity="0.9"/>
<defs>
<linearGradient id="paint0_linear_5207_912" x1="17.607" y1="228.771" x2="7.00377" y2="-86.6571" gradientUnits="userSpaceOnUse">
<stop stop-color="#E99826"/>
<stop offset="0.4698" stop-color="#DA3D68"/>
<stop offset="1" stop-color="#4B4193"/>
</linearGradient>
</defs>
</svg>
