<svg width="86" height="160" viewBox="0 0 86 160" fill="none" xmlns="http://www.w3.org/2000/svg">
<path d="M5.48604 74.7441C-9.14222 34.709 9.86556 -9.12595 47.7965 -23.5969C73.9896 -33.5325 105.569 -26.2069 124.067 -6.82182C129.425 -1.17975 132.862 4.61076 135.123 8.99177C136.75 12.1669 139.44 16.9512 143.184 22.6635C151.224 34.9729 168.766 62.1248 200.001 74.4965C213.779 79.8698 226.491 81.0697 230.65 81.3757C237.466 81.8583 241.809 81.6045 260.375 80.7971C272.636 80.2313 282.476 79.7709 288.127 79.5252C288.321 79.6466 288.321 79.6466 288.28 79.486C319.721 77.9564 350.072 97.7348 361.926 130.1C365.539 139.778 367.078 149.644 366.921 159.259C320.405 124.116 232.825 109.715 128.002 119.208L127.849 119.247C121.626 119.81 116.711 120.381 113.258 120.92C106.617 121.761 103.051 122.5 96.2153 123.22C91.9137 123.634 88.4193 124.013 86.1509 124.079C85.9977 124.118 85.6912 124.197 85.5379 124.236C82.8098 124.419 80.0816 124.603 76.965 124.544C71.58 124.551 68.8518 124.734 65.9597 124.276C37.4488 121.296 19.5215 99.0298 17.0465 95.7292C14.8887 93.0316 9.30436 85.2246 5.48604 74.7441Z" fill="url(#paint0_linear_5207_923)" fill-opacity="0.1"/>
<defs>
<linearGradient id="paint0_linear_5207_923" x1="322.206" y1="24.0469" x2="25.9263" y2="132.793" gradientUnits="userSpaceOnUse">
<stop stop-color="#E99826"/>
<stop offset="0.4698" stop-color="#DA3D68"/>
<stop offset="1" stop-color="#4B4193"/>
</linearGradient>
</defs>
</svg>
