<svg width="190" height="66" viewBox="0 0 190 66" fill="none" xmlns="http://www.w3.org/2000/svg">
<path d="M12.9912 29.0702C-9.55818 -7.10043 0.0278509 -53.9076 34.1717 -75.8703C57.7614 -90.9806 90.1723 -90.3064 112.261 -75.1401C118.665 -70.7206 123.22 -65.7608 126.334 -61.9384C128.579 -59.1657 132.196 -55.0371 137.034 -50.2169C147.434 -39.8241 170.185 -16.8605 203.297 -11.1773C217.885 -8.75255 230.573 -10.1928 234.706 -10.7487C241.475 -11.6782 245.673 -12.8197 263.676 -17.4284C275.559 -20.5038 285.094 -22.9781 290.573 -24.3807C290.788 -24.3019 290.788 -24.3019 290.715 -24.4505C321.169 -32.4138 354.939 -19.3004 373.196 9.93518C378.723 18.6631 382.258 28.0012 384.081 37.4427C331.332 12.6182 242.662 16.5378 142.033 47.3861L141.891 47.4559C135.917 49.2864 131.225 50.8558 127.956 52.0942C121.63 54.2828 118.292 55.7397 111.751 57.8494C107.626 59.1395 104.285 60.2293 102.078 60.7606C101.936 60.8304 101.653 60.97 101.511 61.0398C98.8785 61.7806 96.2464 62.5213 93.1843 63.1043C87.9158 64.2187 85.2837 64.9594 82.3592 65.1056C53.8449 68.0533 31.7214 49.9501 28.6205 47.2291C25.954 45.0329 18.8834 38.5414 12.9912 29.0702Z" fill="url(#paint0_linear_5207_922)" fill-opacity="0.1"/>
<defs>
<linearGradient id="paint0_linear_5207_922" x1="312.514" y1="-85.682" x2="44.9333" y2="81.6743" gradientUnits="userSpaceOnUse">
<stop stop-color="#E99826"/>
<stop offset="0.4698" stop-color="#DA3D68"/>
<stop offset="1" stop-color="#4B4193"/>
</linearGradient>
</defs>
</svg>
