<svg width="23" height="23" viewBox="0 0 23 23" fill="none" xmlns="http://www.w3.org/2000/svg">
<rect width="23" height="23" rx="6" fill="#2C4B9B"/>
<path d="M16.5528 5.73247C16.3412 5.61468 16.1086 5.5398 15.8682 5.51209C15.6277 5.48439 15.3842 5.5044 15.1515 5.571C14.9188 5.6376 14.7014 5.74948 14.5119 5.90024C14.3223 6.051 14.1643 6.23769 14.0468 6.44966L10.6259 12.6172L8.66806 10.6558C8.49808 10.4795 8.29475 10.3389 8.06994 10.2421C7.84513 10.1454 7.60333 10.0945 7.35867 10.0923C7.114 10.0902 6.87136 10.1369 6.64491 10.2297C6.41845 10.3226 6.21271 10.4596 6.0397 10.633C5.86669 10.8063 5.72987 11.0124 5.63722 11.2393C5.54457 11.4661 5.49794 11.7092 5.50007 11.9543C5.5022 12.1995 5.55303 12.4417 5.6496 12.6669C5.74617 12.8921 5.88655 13.0958 6.06254 13.2661L9.74785 16.9582C10.0961 17.308 10.566 17.5 11.0506 17.5L11.3058 17.4815C11.5883 17.442 11.8577 17.3372 12.0928 17.1756C12.328 17.014 12.5225 16.7999 12.6611 16.5502L17.2677 8.24307C17.3853 8.0312 17.4601 7.79819 17.4879 7.55735C17.5156 7.31651 17.4957 7.07256 17.4293 6.83942C17.3629 6.60629 17.2513 6.38854 17.1009 6.19861C16.9505 6.00868 16.7643 5.85028 16.5528 5.73247Z" fill="white"/>
</svg>
