<svg width="42" height="42" viewBox="0 0 42 42" fill="none" xmlns="http://www.w3.org/2000/svg">
<path d="M27.5006 14.4995L14.4994 27.5006M14.4994 14.4995L27.5006 27.5006M34.7886 34.7886C32.9778 36.5993 30.8282 38.0357 28.4623 39.0157C26.0965 39.9956 23.5608 40.5 21 40.5C18.4392 40.5 15.9035 39.9956 13.5377 39.0157C11.1718 38.0357 9.02216 36.5993 7.21142 34.7886C5.40068 32.9779 3.96431 30.8282 2.98435 28.4623C2.00438 26.0965 1.5 23.5608 1.5 21C1.5 18.4392 2.00438 15.9035 2.98435 13.5377C3.96432 11.1718 5.40068 9.02218 7.21142 7.21143C10.8684 3.55447 15.8283 1.50002 21 1.50002C26.1717 1.50002 31.1316 3.55447 34.7886 7.21143C38.4455 10.8684 40.5 15.8283 40.5 21C40.5 26.1717 38.4455 31.1316 34.7886 34.7886Z" stroke="#28448D" stroke-width="3" stroke-linecap="round" stroke-linejoin="round"/>
</svg>
