<svg width="150" height="38" viewBox="0 0 150 38" fill="none" xmlns="http://www.w3.org/2000/svg">
<g clip-path="url(#clip0_13_121)">
<path d="M20.4562 5.3438C20.4562 3.47327 18.8708 1.96552 16.9305 1.96552C14.9902 1.96552 13.4048 3.48461 13.4048 5.3438C13.4048 7.20299 16.9305 12.157 16.9305 12.157C16.9305 12.157 20.4562 7.21432 20.4562 5.3438Z" fill="url(#paint0_linear_13_121)"/>
<path d="M29.6424 29.8986C29.4058 29.7739 29.0982 29.6719 28.7314 29.5926C25.9274 28.9577 20 29.5245 20 29.5245C20 29.5245 20.0118 29.5472 20.0473 29.5812C21.7037 29.842 23.1234 31.0323 23.5375 32.6988C23.5967 32.9482 23.6322 33.1976 23.644 33.447C23.6322 33.6057 23.6322 33.7644 23.644 33.9231C23.6795 34.3879 23.7742 34.8527 23.9871 35.3062C24.3539 36.0997 24.9573 36.7346 25.679 37.154C27.7258 38.1516 30.2458 37.4148 31.3698 35.4535C32.4938 33.481 31.7247 30.987 29.6424 29.8986Z" fill="url(#paint1_linear_13_121)"/>
<path d="M10.9794 21.9248C9.7726 29.3616 7.22889 35.1885 3.9753 37.7959C1.88117 37.2178 0.272125 35.4833 0.0236695 33.284C-0.248449 30.858 1.24229 28.6474 3.51388 27.8085C3.57304 27.7858 3.90431 27.7064 4.37756 27.5704C5.04011 27.3663 5.57251 27.1849 5.92745 27.0489C6.70831 26.6861 7.96242 25.9833 9.12188 24.6909C9.78443 23.954 10.6126 23.0585 10.9794 21.9248Z" fill="url(#paint2_linear_13_121)"/>
<path d="M16.2206 14.1933C19.2494 13.8872 21.9469 15.9845 22.2782 18.8753C22.503 20.8705 21.4382 22.9338 19.77 23.8747C19.2849 24.1468 18.8235 24.2828 18.4804 24.3622C18.2319 24.4188 17.8533 24.5209 17.3919 24.6796C16.3981 25.0197 14.2093 25.7565 12.8014 27.7064C12.1862 28.568 11.8785 29.4296 11.7839 29.713C11.6301 30.1778 11.5709 30.4839 11.2988 31.7876C11.1214 32.6491 10.9794 33.3407 10.8966 33.7375C10.8847 33.7488 10.8847 33.7488 10.8966 33.7488C10.447 35.9594 8.54214 37.7166 6.09308 37.966C5.35954 38.0453 4.64967 37.9773 3.98712 37.7959C7.24071 35.1885 9.78442 29.3616 10.9794 21.9135V21.9021C11.0504 21.46 11.0977 21.1086 11.1213 20.8592C11.1805 20.383 11.1923 20.1223 11.2633 19.6348C11.3107 19.3287 11.3461 19.0793 11.3816 18.9206C11.3816 18.9093 11.3816 18.8866 11.3816 18.8753C11.4171 18.6826 11.4526 18.4898 11.5118 18.2744C11.6064 17.9003 11.6419 17.7076 11.7247 17.5149C12.4346 15.5877 14.2921 14.7375 14.5642 14.6241C14.789 14.5221 15.4279 14.2727 16.2206 14.1933Z" fill="url(#paint3_linear_13_121)"/>
</g>
<path d="M49.7703 12.3H51.8903L57.4103 26.5H55.0503L53.5503 22.64H48.0703L46.5903 26.5H44.2103L49.7703 12.3ZM53.1103 20.98L50.8303 14.76L48.4703 20.98H53.1103ZM62.7334 26.6C62.0268 26.6 61.3801 26.46 60.7934 26.18C60.2068 25.8867 59.7001 25.4933 59.2734 25C58.8601 24.5067 58.5334 23.94 58.2934 23.3C58.0668 22.66 57.9534 21.9867 57.9534 21.28C57.9534 20.5333 58.0734 19.8333 58.3134 19.18C58.5534 18.5267 58.8868 17.9533 59.3134 17.46C59.7534 16.9533 60.2668 16.56 60.8534 16.28C61.4401 16 62.0934 15.86 62.8134 15.86C63.6534 15.86 64.3868 16.06 65.0134 16.46C65.6534 16.86 66.1801 17.38 66.5934 18.02V16.04H68.5334V26.2C68.5334 27.2133 68.2868 28.0733 67.7934 28.78C67.3134 29.4867 66.6534 30.0267 65.8134 30.4C64.9734 30.7733 64.0268 30.96 62.9734 30.96C61.8134 30.96 60.8534 30.76 60.0934 30.36C59.3334 29.96 58.6868 29.4133 58.1534 28.72L59.3934 27.56C59.7934 28.12 60.3068 28.5467 60.9334 28.84C61.5734 29.1333 62.2534 29.28 62.9734 29.28C63.5734 29.28 64.1268 29.1667 64.6334 28.94C65.1534 28.7267 65.5668 28.3867 65.8734 27.92C66.1801 27.4667 66.3334 26.8933 66.3334 26.2V24.6C65.9601 25.2267 65.4468 25.72 64.7934 26.08C64.1401 26.4267 63.4534 26.6 62.7334 26.6ZM63.4534 24.82C63.7868 24.82 64.1068 24.7667 64.4134 24.66C64.7201 24.54 65.0001 24.3867 65.2534 24.2C65.5201 24 65.7468 23.78 65.9334 23.54C66.1201 23.2867 66.2534 23.02 66.3334 22.74V20C66.1601 19.5467 65.9134 19.1533 65.5934 18.82C65.2734 18.4733 64.9134 18.2067 64.5134 18.02C64.1134 17.8333 63.7068 17.74 63.2934 17.74C62.8134 17.74 62.3801 17.8467 61.9934 18.06C61.6201 18.26 61.3001 18.5333 61.0334 18.88C60.7668 19.2133 60.5601 19.5933 60.4134 20.02C60.2668 20.4467 60.1934 20.8867 60.1934 21.34C60.1934 21.82 60.2734 22.2667 60.4334 22.68C60.6068 23.0933 60.8401 23.4667 61.1334 23.8C61.4268 24.12 61.7734 24.3733 62.1734 24.56C62.5734 24.7333 63.0001 24.82 63.4534 24.82ZM71.1716 26.5V16.04H73.3716V26.5H71.1716ZM71.1716 14.32V11.9H73.3716V14.32H71.1716ZM76.0353 11.9H78.2353V23.48C78.2353 24.0133 78.3153 24.3533 78.4753 24.5C78.6353 24.6467 78.8353 24.72 79.0753 24.72C79.342 24.72 79.5886 24.6933 79.8153 24.64C80.0553 24.5867 80.262 24.52 80.4353 24.44L80.7553 26.18C80.4353 26.3133 80.0553 26.4267 79.6153 26.52C79.1753 26.6133 78.782 26.66 78.4353 26.66C77.6886 26.66 77.102 26.4533 76.6753 26.04C76.2486 25.6133 76.0353 25.0267 76.0353 24.28V11.9ZM86.7709 26.7C85.9576 26.7 85.2176 26.56 84.5509 26.28C83.8976 25.9867 83.3309 25.5933 82.8509 25.1C82.3709 24.5933 81.9976 24.02 81.7309 23.38C81.4776 22.7267 81.3509 22.0333 81.3509 21.3C81.3509 20.3133 81.5776 19.4133 82.0309 18.6C82.4843 17.7733 83.1176 17.1133 83.9309 16.62C84.7443 16.1133 85.6976 15.86 86.7909 15.86C87.8843 15.86 88.8243 16.1133 89.6109 16.62C90.4109 17.1133 91.0309 17.7667 91.4709 18.58C91.9109 19.3933 92.1309 20.2667 92.1309 21.2C92.1309 21.36 92.1243 21.5133 92.1109 21.66C92.0976 21.7933 92.0843 21.9067 92.0709 22H83.6909C83.7309 22.6133 83.8976 23.1533 84.1909 23.62C84.4976 24.0733 84.8843 24.4333 85.3509 24.7C85.8176 24.9533 86.3176 25.08 86.8509 25.08C87.4376 25.08 87.9909 24.9333 88.5109 24.64C89.0443 24.3467 89.4043 23.96 89.5909 23.48L91.4709 24.02C91.2443 24.5267 90.8976 24.9867 90.4309 25.4C89.9776 25.8 89.4376 26.12 88.8109 26.36C88.1843 26.5867 87.5043 26.7 86.7709 26.7ZM83.6309 20.54H89.9509C89.9109 19.94 89.7376 19.4133 89.4309 18.96C89.1376 18.4933 88.7576 18.1333 88.2909 17.88C87.8376 17.6133 87.3309 17.48 86.7709 17.48C86.2243 17.48 85.7176 17.6133 85.2509 17.88C84.7976 18.1333 84.4243 18.4933 84.1309 18.96C83.8376 19.4133 83.6709 19.94 83.6309 20.54ZM99.1469 26.5V12.3H105.107C105.747 12.3 106.334 12.4333 106.867 12.7C107.4 12.9667 107.867 13.32 108.267 13.76C108.667 14.2 108.974 14.6933 109.187 15.24C109.4 15.7867 109.507 16.3467 109.507 16.92C109.507 17.7067 109.327 18.46 108.967 19.18C108.62 19.8867 108.12 20.46 107.467 20.9C106.827 21.34 106.08 21.56 105.227 21.56H101.387V26.5H99.1469ZM101.387 19.58H105.087C105.514 19.58 105.887 19.4667 106.207 19.24C106.527 19 106.774 18.68 106.947 18.28C107.134 17.88 107.227 17.4267 107.227 16.92C107.227 16.4 107.12 15.94 106.907 15.54C106.694 15.14 106.414 14.8333 106.067 14.62C105.734 14.3933 105.367 14.28 104.967 14.28H101.387V19.58ZM111.228 22.44V16.04H113.428V22C113.428 22.9333 113.594 23.64 113.928 24.12C114.274 24.5867 114.774 24.82 115.428 24.82C115.841 24.82 116.241 24.7333 116.628 24.56C117.028 24.3867 117.388 24.1333 117.708 23.8C118.041 23.4533 118.308 23.04 118.508 22.56V16.04H120.708V24.02C120.708 24.2733 120.754 24.4533 120.848 24.56C120.941 24.6667 121.094 24.7267 121.308 24.74V26.5C121.081 26.54 120.894 26.5667 120.748 26.58C120.601 26.5933 120.461 26.6 120.328 26.6C119.928 26.6 119.594 26.4933 119.328 26.28C119.061 26.0533 118.908 25.7667 118.868 25.42L118.828 24.38C118.361 25.14 117.754 25.72 117.008 26.12C116.261 26.5067 115.441 26.7 114.548 26.7C113.454 26.7 112.628 26.34 112.068 25.62C111.508 24.9 111.228 23.84 111.228 22.44ZM123.535 11.9H125.735V23.48C125.735 24.0133 125.815 24.3533 125.975 24.5C126.135 24.6467 126.335 24.72 126.575 24.72C126.842 24.72 127.089 24.6933 127.315 24.64C127.555 24.5867 127.762 24.52 127.935 24.44L128.255 26.18C127.935 26.3133 127.555 26.4267 127.115 26.52C126.675 26.6133 126.282 26.66 125.935 26.66C125.189 26.66 124.602 26.4533 124.175 26.04C123.749 25.6133 123.535 25.0267 123.535 24.28V11.9ZM133.251 26.7C132.371 26.7 131.538 26.56 130.751 26.28C129.964 25.9867 129.291 25.5533 128.731 24.98L129.551 23.5C130.151 24.0333 130.751 24.42 131.351 24.66C131.964 24.9 132.571 25.02 133.171 25.02C133.784 25.02 134.284 24.9067 134.671 24.68C135.058 24.44 135.251 24.0933 135.251 23.64C135.251 23.3067 135.151 23.06 134.951 22.9C134.751 22.74 134.458 22.6 134.071 22.48C133.698 22.36 133.244 22.2267 132.711 22.08C131.964 21.8533 131.338 21.62 130.831 21.38C130.324 21.1267 129.944 20.82 129.691 20.46C129.438 20.1 129.311 19.64 129.311 19.08C129.311 18.4 129.484 17.82 129.831 17.34C130.178 16.86 130.658 16.4933 131.271 16.24C131.898 15.9867 132.618 15.86 133.431 15.86C134.191 15.86 134.891 15.98 135.531 16.22C136.184 16.4467 136.758 16.8067 137.251 17.3L136.311 18.76C135.844 18.3333 135.364 18.02 134.871 17.82C134.391 17.62 133.871 17.52 133.311 17.52C132.991 17.52 132.684 17.56 132.391 17.64C132.098 17.7067 131.851 17.84 131.651 18.04C131.464 18.2267 131.371 18.4933 131.371 18.84C131.371 19.12 131.451 19.3467 131.611 19.52C131.771 19.6933 132.011 19.84 132.331 19.96C132.651 20.08 133.044 20.2133 133.511 20.36C134.324 20.6 135.018 20.84 135.591 21.08C136.164 21.3067 136.604 21.6067 136.911 21.98C137.231 22.34 137.391 22.84 137.391 23.48C137.391 24.4933 137.011 25.2867 136.251 25.86C135.504 26.42 134.504 26.7 133.251 26.7ZM144.095 26.7C143.282 26.7 142.542 26.56 141.875 26.28C141.222 25.9867 140.655 25.5933 140.175 25.1C139.695 24.5933 139.322 24.02 139.055 23.38C138.802 22.7267 138.675 22.0333 138.675 21.3C138.675 20.3133 138.902 19.4133 139.355 18.6C139.808 17.7733 140.442 17.1133 141.255 16.62C142.068 16.1133 143.022 15.86 144.115 15.86C145.208 15.86 146.148 16.1133 146.935 16.62C147.735 17.1133 148.355 17.7667 148.795 18.58C149.235 19.3933 149.455 20.2667 149.455 21.2C149.455 21.36 149.448 21.5133 149.435 21.66C149.422 21.7933 149.408 21.9067 149.395 22H141.015C141.055 22.6133 141.222 23.1533 141.515 23.62C141.822 24.0733 142.208 24.4333 142.675 24.7C143.142 24.9533 143.642 25.08 144.175 25.08C144.762 25.08 145.315 24.9333 145.835 24.64C146.368 24.3467 146.728 23.96 146.915 23.48L148.795 24.02C148.568 24.5267 148.222 24.9867 147.755 25.4C147.302 25.8 146.762 26.12 146.135 26.36C145.508 26.5867 144.828 26.7 144.095 26.7ZM140.955 20.54H147.275C147.235 19.94 147.062 19.4133 146.755 18.96C146.462 18.4933 146.082 18.1333 145.615 17.88C145.162 17.6133 144.655 17.48 144.095 17.48C143.548 17.48 143.042 17.6133 142.575 17.88C142.122 18.1333 141.748 18.4933 141.455 18.96C141.162 19.4133 140.995 19.94 140.955 20.54Z" fill="#122041"/>
<defs>
<linearGradient id="paint0_linear_13_121" x1="12.1093" y1="3.30322" x2="21.3098" y2="10.2905" gradientUnits="userSpaceOnUse">
<stop stop-color="#E99826"/>
<stop offset="0.5149" stop-color="#DA3D68"/>
<stop offset="1" stop-color="#4B4193"/>
</linearGradient>
<linearGradient id="paint1_linear_13_121" x1="22.3522" y1="26.389" x2="30.8898" y2="38.7933" gradientUnits="userSpaceOnUse">
<stop stop-color="#E99826"/>
<stop offset="0.4698" stop-color="#DA3D68"/>
<stop offset="0.8776" stop-color="#4B4193"/>
</linearGradient>
<linearGradient id="paint2_linear_13_121" x1="6.63562" y1="37.4687" x2="5.09741" y2="22.467" gradientUnits="userSpaceOnUse">
<stop stop-color="#E99826"/>
<stop offset="0.4698" stop-color="#DA3D68"/>
<stop offset="1" stop-color="#4B4193"/>
</linearGradient>
<linearGradient id="paint3_linear_13_121" x1="14.1335" y1="37.0879" x2="11.8262" y2="14.5853" gradientUnits="userSpaceOnUse">
<stop stop-color="#E99826"/>
<stop offset="0.4698" stop-color="#DA3D68"/>
<stop offset="1" stop-color="#4B4193"/>
</linearGradient>
<clipPath id="clip0_13_121">
<rect width="32" height="38" fill="white"/>
</clipPath>
</defs>
</svg>
