<svg width="32" height="37" viewBox="0 0 32 37" fill="none" xmlns="http://www.w3.org/2000/svg">
<path d="M20.4562 4.3438C20.4562 2.47327 18.8708 0.965515 16.9305 0.965515C14.9902 0.965515 13.4048 2.48461 13.4048 4.3438C13.4048 6.20299 16.9305 11.157 16.9305 11.157C16.9305 11.157 20.4562 6.21432 20.4562 4.3438Z" fill="url(#paint0_linear_13_970)"/>
<path d="M29.6424 28.8986C29.4058 28.7739 29.0982 28.6719 28.7314 28.5926C25.9274 27.9577 20 28.5245 20 28.5245C20 28.5245 20.0118 28.5472 20.0473 28.5812C21.7037 28.842 23.1234 30.0323 23.5375 31.6988C23.5967 31.9482 23.6322 32.1976 23.644 32.447C23.6322 32.6057 23.6322 32.7644 23.644 32.9231C23.6795 33.3879 23.7742 33.8527 23.9871 34.3062C24.3539 35.0997 24.9573 35.7346 25.679 36.154C27.7258 37.1516 30.2458 36.4148 31.3698 34.4535C32.4938 32.481 31.7247 29.987 29.6424 28.8986Z" fill="url(#paint1_linear_13_970)"/>
<path d="M10.9794 20.9248C9.7726 28.3616 7.22889 34.1885 3.9753 36.7959C1.88117 36.2178 0.272125 34.4833 0.0236695 32.284C-0.248449 29.858 1.24229 27.6474 3.51388 26.8085C3.57304 26.7858 3.90431 26.7064 4.37756 26.5704C5.04011 26.3663 5.57251 26.1849 5.92745 26.0489C6.70831 25.6861 7.96242 24.9833 9.12188 23.6909C9.78443 22.954 10.6126 22.0585 10.9794 20.9248Z" fill="url(#paint2_linear_13_970)"/>
<path d="M16.2206 13.1933C19.2494 12.8872 21.9469 14.9845 22.2782 17.8753C22.503 19.8705 21.4382 21.9338 19.77 22.8747C19.2849 23.1468 18.8235 23.2828 18.4804 23.3622C18.2319 23.4188 17.8533 23.5209 17.3919 23.6796C16.3981 24.0197 14.2093 24.7565 12.8014 26.7064C12.1862 27.568 11.8785 28.4296 11.7839 28.713C11.6301 29.1778 11.5709 29.4839 11.2988 30.7876C11.1214 31.6491 10.9794 32.3407 10.8966 32.7375C10.8847 32.7488 10.8847 32.7488 10.8966 32.7488C10.447 34.9594 8.54214 36.7166 6.09308 36.966C5.35954 37.0453 4.64967 36.9773 3.98712 36.7959C7.24071 34.1885 9.78442 28.3616 10.9794 20.9135V20.9021C11.0504 20.46 11.0977 20.1086 11.1213 19.8592C11.1805 19.383 11.1923 19.1223 11.2633 18.6348C11.3107 18.3287 11.3461 18.0793 11.3816 17.9206C11.3816 17.9093 11.3816 17.8866 11.3816 17.8753C11.4171 17.6826 11.4526 17.4898 11.5118 17.2744C11.6064 16.9003 11.6419 16.7076 11.7247 16.5149C12.4346 14.5877 14.2921 13.7375 14.5642 13.6241C14.789 13.5221 15.4279 13.2727 16.2206 13.1933Z" fill="url(#paint3_linear_13_970)"/>
<defs>
<linearGradient id="paint0_linear_13_970" x1="12.1093" y1="2.30322" x2="21.3098" y2="9.29054" gradientUnits="userSpaceOnUse">
<stop stop-color="#E99826"/>
<stop offset="0.5149" stop-color="#DA3D68"/>
<stop offset="1" stop-color="#4B4193"/>
</linearGradient>
<linearGradient id="paint1_linear_13_970" x1="22.3522" y1="25.389" x2="30.8898" y2="37.7933" gradientUnits="userSpaceOnUse">
<stop stop-color="#E99826"/>
<stop offset="0.4698" stop-color="#DA3D68"/>
<stop offset="0.8776" stop-color="#4B4193"/>
</linearGradient>
<linearGradient id="paint2_linear_13_970" x1="6.63562" y1="36.4687" x2="5.09741" y2="21.467" gradientUnits="userSpaceOnUse">
<stop stop-color="#E99826"/>
<stop offset="0.4698" stop-color="#DA3D68"/>
<stop offset="1" stop-color="#4B4193"/>
</linearGradient>
<linearGradient id="paint3_linear_13_970" x1="14.1335" y1="36.0879" x2="11.8262" y2="13.5853" gradientUnits="userSpaceOnUse">
<stop stop-color="#E99826"/>
<stop offset="0.4698" stop-color="#DA3D68"/>
<stop offset="1" stop-color="#4B4193"/>
</linearGradient>
</defs>
</svg>
