<svg width="204" height="171" viewBox="0 0 204 171" fill="none" xmlns="http://www.w3.org/2000/svg">
<g filter="url(#filter0_d_2073_424)">
<path d="M45.9375 163C34.6884 163.002 23.8892 158.582 15.8687 150.694C7.84824 142.807 3.2489 132.083 3.06249 120.835C1.96 110.239 2.11924 94.6082 9.28548 76.564C16.611 58.1155 30.8945 38.001 56.9625 18.45C58.2494 17.4848 59.7139 16.7825 61.2723 16.3833C62.8306 15.984 64.4524 15.8956 66.0449 16.1231C69.2612 16.5826 72.1632 18.3009 74.1125 20.9C76.0618 23.4991 76.8988 26.7662 76.4394 29.9824C75.9799 33.1987 74.2616 36.1007 71.6625 38.05C52.5035 52.4192 41.5275 66.3842 35.2432 78.5975C41.135 77.0844 47.2813 76.8424 53.2738 77.8875C59.2663 78.9326 64.9679 81.2408 69.9997 84.6589C75.0315 88.077 79.2784 92.5267 82.4582 97.7123C85.638 102.898 87.678 108.701 88.4427 114.736C89.2073 120.77 88.679 126.899 86.893 132.713C85.107 138.528 82.1041 143.897 78.0838 148.462C74.0635 153.027 69.1178 156.684 63.5754 159.191C58.0329 161.697 52.0204 162.996 45.9375 163ZM156.187 163C144.938 163.002 134.139 158.582 126.119 150.694C118.098 142.807 113.499 132.083 113.312 120.835C112.21 110.239 112.369 94.6083 119.535 76.564C126.849 58.1155 141.144 38.001 167.212 18.45C168.499 17.4848 169.964 16.7825 171.522 16.3833C173.081 15.984 174.702 15.8956 176.295 16.1231C179.511 16.5826 182.413 18.3009 184.362 20.9C186.312 23.4991 187.149 26.7662 186.689 29.9824C186.23 33.1987 184.512 36.1007 181.912 38.05C162.753 52.4192 151.777 66.3843 145.493 78.5975C151.385 77.0845 157.531 76.8424 163.524 77.8875C169.516 78.9326 175.218 81.2408 180.25 84.6589C185.281 88.077 189.528 92.5267 192.708 97.7123C195.888 102.898 197.928 108.701 198.693 114.736C199.457 120.77 198.929 126.899 197.143 132.714C195.357 138.528 192.354 143.897 188.334 148.462C184.314 153.027 179.368 156.684 173.825 159.191C168.283 161.697 162.27 162.996 156.187 163Z" fill="#28448D" fill-opacity="0.3" shape-rendering="crispEdges"/>
</g>
<defs>
<filter id="filter0_d_2073_424" x="-1.44141" y="16" width="204.474" height="155" filterUnits="userSpaceOnUse" color-interpolation-filters="sRGB">
<feFlood flood-opacity="0" result="BackgroundImageFix"/>
<feColorMatrix in="SourceAlpha" type="matrix" values="0 0 0 0 0 0 0 0 0 0 0 0 0 0 0 0 0 0 127 0" result="hardAlpha"/>
<feOffset dy="4"/>
<feGaussianBlur stdDeviation="2"/>
<feComposite in2="hardAlpha" operator="out"/>
<feColorMatrix type="matrix" values="0 0 0 0 0 0 0 0 0 0 0 0 0 0 0 0 0 0 0.25 0"/>
<feBlend mode="normal" in2="BackgroundImageFix" result="effect1_dropShadow_2073_424"/>
<feBlend mode="normal" in="SourceGraphic" in2="effect1_dropShadow_2073_424" result="shape"/>
</filter>
</defs>
</svg>
