<svg width="23" height="23" viewBox="0 0 23 23" fill="none" xmlns="http://www.w3.org/2000/svg">
<rect x="0.5" y="0.5" width="22" height="22" rx="5.5" stroke="#DEDEDE"/>
<path d="M15.8105 6.00879C15.942 6.02393 16.0704 6.05877 16.1914 6.11133L16.3096 6.16895C16.4251 6.23328 16.5304 6.31433 16.6221 6.40918L16.709 6.50879C16.7911 6.61256 16.8578 6.7278 16.9062 6.85059L16.9482 6.97656C16.9845 7.1041 17.0022 7.23603 17 7.36816L16.9912 7.5C16.976 7.63186 16.9412 7.76055 16.8887 7.88184L16.8311 8L16.8301 8.00098L12.2236 16.3076C12.1479 16.4441 12.0494 16.5659 11.9326 16.668L11.8096 16.7637C11.6415 16.8791 11.4494 16.9534 11.248 16.9834L11.0371 16.999C10.7332 16.9959 10.438 16.89 10.2012 16.6953L10.1025 16.6055L10.1016 16.6045L6.41602 12.9131L6.41016 12.9072L6.31934 12.8096C6.26172 12.7416 6.21107 12.6679 6.16797 12.5898L6.10938 12.4697C6.0566 12.3466 6.02222 12.2167 6.00781 12.084L6 11.9502C5.99884 11.8161 6.0177 11.6827 6.05566 11.5547L6.10059 11.4287C6.15128 11.3046 6.21926 11.1883 6.30371 11.085L6.39355 10.9863C6.48815 10.8916 6.59618 10.8116 6.71387 10.749L6.83496 10.6924C6.95843 10.6418 7.0884 10.6098 7.2207 10.5977L7.35449 10.5928C7.488 10.594 7.62021 10.6151 7.74707 10.6553L7.87207 10.7012C7.99486 10.754 8.10933 10.8248 8.21094 10.9111L8.30762 11.0029L8.31445 11.0088L10.2725 12.9707L10.7412 13.4404L11.0635 12.8594L14.4844 6.69238C14.5486 6.57654 14.629 6.47073 14.7236 6.37891L14.8232 6.29199C14.9269 6.20958 15.0415 6.14228 15.1641 6.09375L15.2891 6.05176C15.4584 6.00329 15.6356 5.98868 15.8105 6.00879Z" stroke="#DEDEDE"/>
</svg>
