<svg width="32" height="32" viewBox="0 0 32 32" fill="none" xmlns="http://www.w3.org/2000/svg">
<path d="M28 26.6667C28 24.344 25.7733 22.3693 22.6667 21.636M20 26.6667C20 23.72 16.4187 21.3333 12 21.3333C7.58133 21.3333 4 23.72 4 26.6667M20 17.3333C21.4145 17.3333 22.771 16.7714 23.7712 15.7712C24.7714 14.771 25.3333 13.4145 25.3333 12C25.3333 10.5855 24.7714 9.22895 23.7712 8.22875C22.771 7.22856 21.4145 6.66666 20 6.66666M12 17.3333C10.5855 17.3333 9.22896 16.7714 8.22876 15.7712C7.22857 14.771 6.66667 13.4145 6.66667 12C6.66667 10.5855 7.22857 9.22895 8.22876 8.22875C9.22896 7.22856 10.5855 6.66666 12 6.66666C13.4145 6.66666 14.771 7.22856 15.7712 8.22875C16.7714 9.22895 17.3333 10.5855 17.3333 12C17.3333 13.4145 16.7714 14.771 15.7712 15.7712C14.771 16.7714 13.4145 17.3333 12 17.3333Z" stroke="white" stroke-opacity="0.6" stroke-width="2" stroke-linecap="round" stroke-linejoin="round"/>
</svg>
