<svg width="21" height="20" viewBox="0 0 21 20" fill="none" xmlns="http://www.w3.org/2000/svg">
<path d="M19.5 10C19.2348 10 18.9804 10.1054 18.7929 10.2929C18.6054 10.4804 18.5 10.7348 18.5 11V17C18.5 17.2652 18.3946 17.5196 18.2071 17.7071C18.0196 17.8946 17.7652 18 17.5 18H3.5C3.23478 18 2.98043 17.8946 2.79289 17.7071C2.60536 17.5196 2.5 17.2652 2.5 17V3C2.5 2.73478 2.60536 2.48043 2.79289 2.29289C2.98043 2.10536 3.23478 2 3.5 2H9.5C9.76522 2 10.0196 1.89464 10.2071 1.70711C10.3946 1.51957 10.5 1.26522 10.5 1C10.5 0.734784 10.3946 0.48043 10.2071 0.292893C10.0196 0.105357 9.76522 0 9.5 0H3.5C2.70435 0 1.94129 0.316071 1.37868 0.87868C0.816071 1.44129 0.5 2.20435 0.5 3V17C0.5 17.7956 0.816071 18.5587 1.37868 19.1213C1.94129 19.6839 2.70435 20 3.5 20H17.5C18.2956 20 19.0587 19.6839 19.6213 19.1213C20.1839 18.5587 20.5 17.7956 20.5 17V11C20.5 10.7348 20.3946 10.4804 20.2071 10.2929C20.0196 10.1054 19.7652 10 19.5 10ZM4.5 10.76V15C4.5 15.2652 4.60536 15.5196 4.79289 15.7071C4.98043 15.8946 5.23478 16 5.5 16H9.74C9.87161 16.0008 10.0021 15.9755 10.1239 15.9258C10.2457 15.876 10.3566 15.8027 10.45 15.71L17.37 8.78L20.21 6C20.3037 5.90704 20.3781 5.79644 20.4289 5.67458C20.4797 5.55272 20.5058 5.42201 20.5058 5.29C20.5058 5.15799 20.4797 5.02728 20.4289 4.90542C20.3781 4.78356 20.3037 4.67296 20.21 4.58L15.97 0.29C15.877 0.196272 15.7664 0.121877 15.6446 0.0711086C15.5227 0.0203399 15.392 -0.00579834 15.26 -0.00579834C15.128 -0.00579834 14.9973 0.0203399 14.8754 0.0711086C14.7536 0.121877 14.643 0.196272 14.55 0.29L11.73 3.12L4.79 10.05C4.69732 10.1434 4.62399 10.2543 4.57423 10.3761C4.52446 10.4979 4.49924 10.6284 4.5 10.76ZM15.26 2.41L18.09 5.24L16.67 6.66L13.84 3.83L15.26 2.41ZM6.5 11.17L12.43 5.24L15.26 8.07L9.33 14H6.5V11.17Z" fill="white"/>
</svg>
