<svg width="48" height="48" viewBox="0 0 48 48" fill="none" xmlns="http://www.w3.org/2000/svg">
<rect x="0.5" y="0.5" width="47" height="47" rx="12.5" fill="#2C4B9B"/>
<rect x="0.5" y="0.5" width="47" height="47" rx="12.5" stroke="#EAEDF5"/>
<path d="M18.188 33.357C18.0759 33.4373 17.9437 33.4852 17.8062 33.4954C17.6686 33.5055 17.5309 33.4775 17.4082 33.4145C17.2855 33.3514 17.1825 33.2558 17.1107 33.138C17.0389 33.0202 17.0009 32.8849 17.001 32.747V17.752C17.001 16.89 17.3434 16.0633 17.9529 15.4539C18.5624 14.8444 19.389 14.502 20.251 14.502H27.749C28.6109 14.502 29.4376 14.8444 30.0471 15.4539C30.6566 16.0633 30.999 16.89 30.999 17.752V32.748C30.999 32.886 30.961 33.0214 30.889 33.1391C30.817 33.2569 30.7139 33.3526 30.5911 33.4156C30.4683 33.4785 30.3304 33.5064 30.1928 33.496C30.0552 33.4857 29.923 33.4376 29.811 33.357L24.001 29.176L18.188 33.357ZM29.5 17.752C29.5 17.2878 29.3156 16.8427 28.9874 16.5145C28.6592 16.1863 28.2141 16.002 27.75 16.002H20.251C19.7868 16.002 19.3417 16.1863 19.0135 16.5145C18.6854 16.8427 18.501 17.2878 18.501 17.752V31.284L23.562 27.643C23.6896 27.5512 23.8428 27.5018 24 27.5018C24.1572 27.5018 24.3104 27.5512 24.438 27.643L29.499 31.284L29.5 17.752Z" fill="#EAEDF5"/>
</svg>


