<svg width="34" height="31" viewBox="0 0 34 31" fill="none" xmlns="http://www.w3.org/2000/svg">
<path d="M13.459 1.73242H20.542C20.8367 1.73242 21.114 1.79139 21.3838 1.91309C21.6673 2.04096 21.8939 2.20748 22.0781 2.40918L22.083 2.41504L24.167 4.66504L24.5381 5.06543H30.334C30.9161 5.06543 31.3837 5.25881 31.8047 5.67969C32.2256 6.10062 32.4177 6.56741 32.417 7.14746V27.1494C32.4169 27.7321 32.2247 28.2004 31.8047 28.6211C31.3859 29.0406 30.9189 29.233 30.3359 29.2324H3.66699C3.08438 29.2324 2.61757 29.0394 2.19824 28.6201C1.83113 28.253 1.63699 27.8486 1.59375 27.3613L1.58398 27.1475V7.14941C1.58398 6.5673 1.77698 6.10026 2.19727 5.68066C2.56616 5.3124 2.97076 5.11835 3.45605 5.0752L3.66895 5.06543H9.46387L9.83496 4.66504L11.918 2.41504L11.9219 2.41016C12.1077 2.20746 12.3353 2.04113 12.6191 1.91309C12.8218 1.82166 13.0282 1.76553 13.2422 1.74316L13.459 1.73242ZM17.002 8.39941C14.5879 8.39685 12.4971 9.25538 10.8037 10.9551C9.11303 12.6522 8.25483 14.7406 8.25098 17.1475C8.2472 19.5573 9.10611 21.6481 10.8047 23.3467C12.5033 25.0453 14.5938 25.9045 17.0029 25.8994L17.002 25.8984C19.4122 25.8981 21.5017 25.0409 23.1973 23.3467C24.8937 21.6515 25.7523 19.5608 25.751 17.1484C25.7497 14.7371 24.8923 12.6471 23.1982 10.9531C21.5042 9.25914 19.414 8.40198 17.002 8.39941ZM17.001 14.2324C17.8448 14.2325 18.5104 14.5095 19.0752 15.0742C19.6401 15.6391 19.917 16.3053 19.917 17.1494C19.9169 17.9934 19.64 18.6588 19.0752 19.2236C18.5104 19.7884 17.8449 20.0654 17.001 20.0654C16.1569 20.0654 15.4907 19.7885 14.9258 19.2236C14.3611 18.6589 14.0841 17.9933 14.084 17.1494C14.084 16.3053 14.3609 15.6391 14.9258 15.0742C15.4907 14.5093 16.1569 14.2324 17.001 14.2324Z" stroke="black" stroke-width="2.5"/>
</svg>
