<svg width="32" height="32" viewBox="0 0 32 32" fill="none" xmlns="http://www.w3.org/2000/svg">
<path fill-rule="evenodd" clip-rule="evenodd" d="M16.9427 20.9427C16.6927 21.1926 16.3536 21.333 16.0001 21.333C15.6465 21.333 15.3074 21.1926 15.0574 20.9427L7.51472 13.4C7.38737 13.277 7.28579 13.1299 7.21592 12.9672C7.14604 12.8045 7.10925 12.6296 7.10772 12.4525C7.10618 12.2755 7.13991 12.0999 7.20696 11.9361C7.274 11.7722 7.373 11.6233 7.49819 11.4981C7.62338 11.3729 7.77225 11.2739 7.93611 11.2069C8.09997 11.1399 8.27555 11.1061 8.45259 11.1077C8.62962 11.1092 8.80458 11.146 8.96726 11.2159C9.12993 11.2857 9.27706 11.3873 9.40005 11.5147L16.0001 18.1147L22.6001 11.5147C22.8515 11.2718 23.1883 11.1374 23.5379 11.1404C23.8875 11.1435 24.2219 11.2837 24.4691 11.5309C24.7164 11.7781 24.8566 12.1125 24.8596 12.4621C24.8627 12.8117 24.7283 13.1485 24.4854 13.4L16.9427 20.9427Z" fill="black"/>
</svg>
