<svg width="40" height="40" viewBox="0 0 40 40" fill="none" xmlns="http://www.w3.org/2000/svg">
<path d="M18.7253 3.95661C18.112 4.20994 17.5636 4.75994 16.4653 5.85661C15.367 6.95661 14.817 7.50494 14.5653 8.11661C14.3977 8.52109 14.3115 8.95462 14.3115 9.39244C14.3115 9.83026 14.3977 10.2638 14.5653 10.6683C14.817 11.2816 15.3653 11.8299 16.4653 12.9283C17.562 14.0266 18.112 14.5766 18.7253 14.8283C19.5417 15.1663 20.4589 15.1663 21.2753 14.8283C21.8886 14.5766 22.437 14.0283 23.5353 12.9283C24.6336 11.8283 25.1819 11.2816 25.4353 10.6683C25.7733 9.85187 25.7733 8.93468 25.4353 8.11827C25.1819 7.50494 24.6353 6.95661 23.5353 5.85827C22.4353 4.75994 21.8886 4.20994 21.2753 3.95661C20.4589 3.61863 19.5417 3.61863 18.7253 3.95661ZM8.11695 14.5633C7.50528 14.8166 6.95529 15.3649 5.85862 16.4633C4.75862 17.5633 4.21029 18.1116 3.95695 18.7233C3.78938 19.1278 3.70313 19.5613 3.70312 19.9991C3.70312 20.4369 3.78938 20.8705 3.95695 21.2749C4.21029 21.8883 4.76028 22.4366 5.85695 23.5349C6.95695 24.6333 7.50528 25.1816 8.11695 25.4349C8.52143 25.6025 8.95496 25.6888 9.39278 25.6888C9.83061 25.6888 10.2641 25.6025 10.6686 25.4349C11.282 25.1816 11.8303 24.6333 12.9286 23.5349C14.027 22.4366 14.5753 21.8883 14.8286 21.2749C15.1666 20.4585 15.1666 19.5413 14.8286 18.7249C14.5753 18.1116 14.0286 17.5616 12.9286 16.4633C11.8286 15.3649 11.282 14.8166 10.6686 14.5633C9.85221 14.2253 8.93336 14.2253 8.11695 14.5633ZM27.072 16.4633C25.9736 17.5633 25.4253 18.1116 25.172 18.7233C25.0044 19.1278 24.9181 19.5613 24.9181 19.9991C24.9181 20.4369 25.0044 20.8705 25.172 21.2749C25.4253 21.8883 25.9736 22.4366 27.072 23.5349C28.1703 24.6333 28.7203 25.1816 29.332 25.4349C30.1484 25.7729 31.0655 25.7729 31.8819 25.4349C32.4953 25.1816 33.0453 24.6333 34.1436 23.5349C35.242 22.4366 35.7886 21.8883 36.0436 21.2749C36.3816 20.4585 36.3816 19.5413 36.0436 18.7249C35.7886 18.1116 35.242 17.5616 34.1436 16.4633C33.0436 15.3649 32.4953 14.8166 31.8836 14.5633C31.4791 14.3957 31.0456 14.3094 30.6078 14.3094C30.17 14.3094 29.7364 14.3957 29.332 14.5633C28.7203 14.8166 28.1703 15.3649 27.072 16.4633ZM18.7253 25.1699C18.112 25.4233 17.5636 25.9733 16.4653 27.0699C15.367 28.1699 14.817 28.7183 14.5653 29.3316C14.2273 30.148 14.2273 31.0652 14.5653 31.8816C14.817 32.4949 15.3653 33.0433 16.4653 34.1416C17.562 35.2399 18.112 35.7899 18.7253 36.0416C19.5417 36.3796 20.4589 36.3796 21.2753 36.0416C21.8886 35.7899 22.437 35.2416 23.5353 34.1416C24.6336 33.0416 25.1819 32.4949 25.4353 31.8816C25.7736 31.0649 25.7736 30.1483 25.4353 29.3316C25.1819 28.7183 24.6353 28.1683 23.5353 27.0716C22.437 25.9716 21.8886 25.4233 21.2753 25.1699C20.4589 24.832 19.5417 24.832 18.7253 25.1699Z" stroke="url(#paint0_linear_6012_1607)" stroke-width="3" stroke-linecap="round" stroke-linejoin="round"/>
<defs>
<linearGradient id="paint0_linear_6012_1607" x1="28.2968" y1="-8.51887" x2="-3.03886" y2="1.37752" gradientUnits="userSpaceOnUse">
<stop stop-color="#4E61EC"/>
<stop offset="0.504808" stop-color="#621DAC"/>
<stop offset="1" stop-color="#401795"/>
</linearGradient>
</defs>
</svg>
