<svg width="26" height="30" viewBox="0 0 26 30" fill="none" xmlns="http://www.w3.org/2000/svg">
<path fill-rule="evenodd" clip-rule="evenodd" d="M15 3.98242H11C10.7347 3.98242 10.4804 4.08778 10.2928 4.27532C10.1053 4.46285 9.99995 4.71721 9.99995 4.98242V5.98242H16V4.98242C16 4.71721 15.8946 4.46285 15.7071 4.27532C15.5195 4.08778 15.2652 3.98242 15 3.98242ZM19 5.98242V4.98242C19 3.92156 18.5785 2.90414 17.8284 2.15399C17.0782 1.40385 16.0608 0.982422 15 0.982422H11C9.93909 0.982422 8.92167 1.40385 8.17153 2.15399C7.42138 2.90414 6.99995 3.92156 6.99995 4.98242V5.98242H1.50195C1.10413 5.98242 0.722597 6.14046 0.441293 6.42176C0.159988 6.70307 0.00195312 7.0846 0.00195312 7.48242C0.00195312 7.88025 0.159988 8.26178 0.441293 8.54308C0.722597 8.82439 1.10413 8.98242 1.50195 8.98242H2.12595L2.75995 24.2324C2.82446 25.7793 3.48442 27.2414 4.60187 28.313C5.71931 29.3846 7.20773 29.9827 8.75595 29.9824H17.246C18.7938 29.9822 20.2817 29.3838 21.3988 28.3123C22.5158 27.2407 23.1755 25.779 23.24 24.2324L23.876 8.98242H24.5C24.8978 8.98242 25.2793 8.82439 25.5606 8.54308C25.8419 8.26178 26 7.88025 26 7.48242C26 7.0846 25.8419 6.70307 25.5606 6.42176C25.2793 6.14046 24.8978 5.98242 24.5 5.98242H19ZM20.872 8.98242H5.12795L5.75795 24.1064C5.78996 24.88 6.11983 25.6113 6.67858 26.1473C7.23732 26.6833 7.98167 26.9826 8.75595 26.9824H17.246C18.0199 26.9821 18.7637 26.6826 19.3221 26.1466C19.8804 25.6107 20.21 24.8797 20.242 24.1064L20.872 8.98242ZM8.49995 12.9824V22.9824C8.49995 23.3802 8.65799 23.7618 8.93929 24.0431C9.2206 24.3244 9.60213 24.4824 9.99995 24.4824C10.3978 24.4824 10.7793 24.3244 11.0606 24.0431C11.3419 23.7618 11.5 23.3802 11.5 22.9824V12.9824C11.5 12.5846 11.3419 12.2031 11.0606 11.9218C10.7793 11.6405 10.3978 11.4824 9.99995 11.4824C9.60213 11.4824 9.2206 11.6405 8.93929 11.9218C8.65799 12.2031 8.49995 12.5846 8.49995 12.9824ZM16 11.4824C16.3978 11.4824 16.7793 11.6405 17.0606 11.9218C17.3419 12.2031 17.5 12.5846 17.5 12.9824V22.9824C17.5 23.3802 17.3419 23.7618 17.0606 24.0431C16.7793 24.3244 16.3978 24.4824 16 24.4824C15.6021 24.4824 15.2206 24.3244 14.9393 24.0431C14.658 23.7618 14.5 23.3802 14.5 22.9824V12.9824C14.5 12.5846 14.658 12.2031 14.9393 11.9218C15.2206 11.6405 15.6021 11.4824 16 11.4824Z" fill="black"/>
</svg>
