<svg width="32" height="33" viewBox="0 0 32 33" fill="none" xmlns="http://www.w3.org/2000/svg">
<path d="M9.33398 9.81543H8.00065C7.29341 9.81543 6.61513 10.0964 6.11503 10.5965C5.61494 11.0966 5.33398 11.7749 5.33398 12.4821V24.4821C5.33398 25.1893 5.61494 25.8676 6.11503 26.3677C6.61513 26.8678 7.29341 27.1488 8.00065 27.1488H20.0007C20.7079 27.1488 21.3862 26.8678 21.8863 26.3677C22.3864 25.8676 22.6673 25.1893 22.6673 24.4821V23.1488" stroke="#44A15E" stroke-width="2" stroke-linecap="round" stroke-linejoin="round"/>
<path d="M21.3333 7.14923L25.3333 11.1492M27.18 9.26256C27.7051 8.73744 28.0001 8.02521 28.0001 7.28256C28.0001 6.53992 27.7051 5.82769 27.18 5.30256C26.6549 4.77744 25.9426 4.48242 25.2 4.48242C24.4574 4.48242 23.7451 4.77744 23.22 5.30256L12 16.4826V20.4826H16L27.18 9.26256Z" stroke="#44A15E" stroke-width="2" stroke-linecap="round" stroke-linejoin="round"/>
</svg>
