<svg width="19" height="18" viewBox="0 0 19 18" fill="none" xmlns="http://www.w3.org/2000/svg">
<g clip-path="url(#clip0_7180_1280)">
<path d="M9.50109 17.1197C5.02359 17.1197 1.38281 13.4775 1.38281 9.0014C1.38281 4.5239 5.02359 0.881714 9.50109 0.881714C13.9772 0.881714 17.6194 4.5239 17.6194 9.0014C17.6194 13.4775 13.9786 17.1197 9.50109 17.1197Z" fill="white"/>
<path d="M9.50156 0.0140381C4.54734 0.0140381 0.515625 4.04576 0.515625 8.99998C0.515625 13.9542 4.54734 17.9845 9.50156 17.9845C14.4558 17.9845 18.4861 13.9542 18.4861 8.99998C18.4875 4.04576 14.4558 0.0140381 9.50156 0.0140381ZM9.50156 17.1197C5.02406 17.1197 1.38328 13.4775 1.38328 9.00138C1.38328 4.52388 5.02406 0.881694 9.50156 0.881694C13.9777 0.881694 17.6198 4.52388 17.6198 9.00138C17.6198 13.4775 13.9791 17.1197 9.50156 17.1197Z" fill="#40C0E7"/>
<path d="M10.877 8.99857C10.877 8.47404 10.5803 8.02545 10.1486 7.79342V1.59326H8.85344V7.79201C8.42172 8.02404 8.125 8.47404 8.125 8.99857C8.125 9.75936 8.73953 10.3739 9.50031 10.3739C9.76609 10.3739 10.0122 10.2951 10.2231 10.1644L13.2297 11.9011L13.878 10.7803L10.8714 9.04498C10.8714 9.02951 10.877 9.01404 10.877 8.99857ZM9.29641 9.4767C9.20327 9.43657 9.12393 9.37004 9.0682 9.28531C9.01247 9.20059 8.98278 9.10139 8.98281 8.99998C8.98281 8.97467 8.98562 8.94936 8.98984 8.92545C9.00953 8.79186 9.07844 8.67654 9.17969 8.59639C9.26828 8.52607 9.37938 8.48248 9.50172 8.48248C9.78859 8.48248 10.0206 8.71451 10.0206 8.99998C10.0206 9.21373 9.89125 9.39795 9.70562 9.4767C9.70281 9.47811 9.7 9.47811 9.69719 9.47951C9.63508 9.50562 9.56839 9.51906 9.50102 9.51906C9.43364 9.51906 9.36695 9.50562 9.30484 9.47951C9.30203 9.47951 9.29922 9.47811 9.29641 9.4767Z" fill="#2F2F2F"/>
<path d="M16.5228 9.52036C16.8094 9.52036 17.0417 9.28803 17.0417 9.00145C17.0417 8.71487 16.8094 8.48254 16.5228 8.48254C16.2362 8.48254 16.0039 8.71487 16.0039 9.00145C16.0039 9.28803 16.2362 9.52036 16.5228 9.52036Z" fill="#2F2F2F"/>
<path d="M15.8418 5.94049C16.0894 5.7977 16.174 5.48069 16.0308 5.23244C15.8876 4.98419 15.5709 4.8987 15.3233 5.04149C15.0757 5.18429 14.9911 5.5013 15.1343 5.74955C15.2774 5.9978 15.5942 6.08329 15.8418 5.94049Z" fill="#2F2F2F"/>
<path d="M13.4598 3.17759C13.6027 2.93006 13.5178 2.61357 13.2703 2.47069C13.0227 2.32782 12.7063 2.41266 12.5634 2.6602C12.4205 2.90773 12.5054 3.22422 12.7529 3.36709C13.0004 3.50997 13.3169 3.42512 13.4598 3.17759Z" fill="#2F2F2F"/>
<path d="M6.24682 3.36808C6.49436 3.22522 6.57921 2.90874 6.43635 2.6612C6.29348 2.41366 5.977 2.3288 5.72946 2.47167C5.48192 2.61453 5.39706 2.93102 5.53993 3.17856C5.68279 3.42609 5.99928 3.51095 6.24682 3.36808Z" fill="#2F2F2F"/>
<path d="M3.86602 5.74694C4.00895 5.49944 3.92417 5.18293 3.67667 5.04C3.42917 4.89708 3.11266 4.98185 2.96973 5.22935C2.8268 5.47685 2.91158 5.79336 3.15908 5.93629C3.40658 6.07922 3.72309 5.99444 3.86602 5.74694Z" fill="#2F2F2F"/>
<path d="M2.47844 8.48254C2.19297 8.48254 1.96094 8.71458 1.96094 9.00004C1.96094 9.28551 2.19297 9.51754 2.47844 9.51754C2.76531 9.51754 2.99734 9.28551 2.99734 8.99864C2.99734 8.71317 2.76531 8.48254 2.47844 8.48254ZM3.16047 12.0629C3.04194 12.1319 2.95558 12.2451 2.92027 12.3776C2.88496 12.5102 2.90357 12.6513 2.97203 12.7702C3.00598 12.8291 3.05121 12.8808 3.10514 12.9223C3.15907 12.9637 3.22065 12.9941 3.28635 13.0118C3.35204 13.0294 3.42057 13.0339 3.48801 13.025C3.55545 13.0162 3.62048 12.9941 3.67938 12.96C3.79852 12.8912 3.88545 12.7779 3.92105 12.645C3.95665 12.5121 3.93801 12.3705 3.86922 12.2513C3.80016 12.1324 3.68673 12.0458 3.55384 12.0104C3.42094 11.9751 3.27946 11.9939 3.16047 12.0629ZM6.24859 14.6321C6.18971 14.598 6.12468 14.5759 6.05723 14.567C5.98978 14.5581 5.92123 14.5625 5.85552 14.5802C5.78981 14.5978 5.72822 14.6283 5.67429 14.6697C5.62037 14.7112 5.57515 14.7629 5.54125 14.8219C5.4729 14.941 5.45451 15.0822 5.49009 15.2148C5.52567 15.3474 5.61233 15.4604 5.73109 15.5293C5.78999 15.5633 5.85502 15.5854 5.92246 15.5942C5.9899 15.6031 6.05843 15.5986 6.12412 15.581C6.18982 15.5634 6.25139 15.5329 6.30533 15.4915C6.35926 15.45 6.40449 15.3984 6.43844 15.3394C6.58187 15.0933 6.49609 14.7755 6.24859 14.6321ZM9.49984 15.504C9.21297 15.504 8.98375 15.736 8.98234 16.0229C8.98375 16.3083 9.21438 16.5404 9.49984 16.5404C9.78531 16.5404 10.0187 16.3083 10.0173 16.0229C10.0177 15.9547 10.0046 15.8872 9.97874 15.8242C9.95288 15.7611 9.9148 15.7038 9.86669 15.6556C9.81858 15.6074 9.76139 15.5691 9.69843 15.5431C9.63547 15.5171 9.56797 15.5038 9.49984 15.504ZM12.7525 14.6335C12.6934 14.6673 12.6416 14.7125 12.6001 14.7664C12.5585 14.8204 12.5281 14.882 12.5106 14.9478C12.4931 15.0136 12.4888 15.0822 12.498 15.1497C12.5071 15.2171 12.5296 15.2821 12.5641 15.3408C12.598 15.3998 12.6432 15.4514 12.6972 15.4929C12.7511 15.5343 12.8127 15.5648 12.8784 15.5824C12.9441 15.6 13.0126 15.6045 13.08 15.5957C13.1475 15.5868 13.2125 15.5647 13.2714 15.5307C13.5189 15.3886 13.6047 15.0694 13.4613 14.8233C13.3923 14.7043 13.279 14.6175 13.1461 14.5819C13.0133 14.5463 12.8717 14.5648 12.7525 14.6335ZM15.8406 12.0629C15.7817 12.0288 15.7167 12.0067 15.6493 11.9979C15.5818 11.989 15.5133 11.9935 15.4476 12.0111C15.3819 12.0288 15.3203 12.0592 15.2664 12.1006C15.2125 12.1421 15.1672 12.1938 15.1333 12.2527C14.9898 12.5016 15.0742 12.8152 15.3231 12.96C15.5706 13.1021 15.887 13.0191 16.0305 12.7702C16.1739 12.5241 16.0895 12.2049 15.8406 12.0629Z" fill="#2F2F2F"/>
</g>
<defs>
<clipPath id="clip0_7180_1280">
<rect width="18" height="18" fill="white" transform="translate(0.5)"/>
</clipPath>
</defs>
</svg>
