<svg width="29" height="28" viewBox="0 0 29 28" fill="none" xmlns="http://www.w3.org/2000/svg">
<path d="M4.96094 16.5297C4.96094 16.5297 5.48113 18.5325 8.73875 18.0202L9.29219 16.6797L8.35462 15.6612L5.76244 14.8059L4.96094 16.5297Z" fill="#34484C"/>
<path d="M15.3406 12.7737C15.3406 13.4829 14.9758 13.6706 14.0553 14.0591L6.19163 17.3797C6.02272 17.3798 5.85545 17.3466 5.6994 17.282C5.54334 17.2174 5.40156 17.1226 5.28216 17.0032C5.16277 16.8837 5.06811 16.7418 5.00361 16.5857C4.9391 16.4296 4.90602 16.2623 4.90625 16.0934V5.0435C4.90625 4.33387 5.32363 4.0985 6.19163 3.75944L14.0557 0.4375C14.3966 0.437616 14.7235 0.573062 14.9646 0.814079C15.2057 1.0551 15.3413 1.38197 15.3415 1.72287V12.7741" fill="#AD7029"/>
<path d="M5.62109 17.2458C5.62109 17.2458 8.56984 18.0902 8.74222 18.0193C8.91372 17.945 8.63109 16.7401 8.63109 16.7401L7.56578 15.5925L6.57266 15.5461L6.39809 15.7938L5.62109 17.2458Z" fill="#34484C"/>
<path d="M13.8692 1.20581L5.14453 4.86987L5.55359 7.21881L6.85166 7.34875L11.1868 6.65094L13.8814 5.23912L15.8642 2.52225C15.4319 1.74569 14.7945 1.26487 13.8692 1.20581Z" fill="#F4F5F5"/>
<path d="M7.45425 5.6831C7.45425 5.4766 7.49275 5.31167 7.56275 5.17254C6.66938 5.08854 5.82588 4.83085 5.21163 4.27698C5.00687 4.46467 4.90625 4.69698 4.90625 5.04523V16.0956C4.90648 16.4364 5.04198 16.7632 5.28298 17.0042C5.52399 17.2452 5.85079 17.3807 6.19162 17.381L7.46038 16.8455C7.45775 16.807 7.45381 16.772 7.45381 16.7335L7.45425 5.6831Z" fill="#34484C"/>
<path d="M18.1163 13.8644C18.1163 14.5754 17.751 14.7613 16.8301 15.1507L8.73938 18.0194C8.39832 18.0194 8.07122 17.8839 7.83001 17.6428C7.58881 17.4017 7.45324 17.0746 7.45312 16.7335V5.68317C7.45312 4.97442 7.87094 4.73817 8.73938 4.39692L16.8301 1.52954C17.1708 1.52954 17.4977 1.66476 17.7388 1.9055C17.98 2.14625 18.1157 2.47285 18.1163 2.8136V13.8644Z" fill="#F79420"/>
<path d="M14.7649 4.90135C14.7733 4.92258 14.7775 4.94529 14.777 4.96814C14.7766 4.99098 14.7716 5.01351 14.7624 5.03441C14.7531 5.05531 14.7398 5.07415 14.7232 5.08984C14.7066 5.10553 14.687 5.11775 14.6656 5.12579L10.3623 6.78566C10.3193 6.80229 10.2714 6.80122 10.2291 6.7827C10.1868 6.76418 10.1536 6.72971 10.1366 6.68679C10.1201 6.64378 10.1212 6.596 10.1398 6.55382C10.1583 6.51164 10.1927 6.47846 10.2355 6.46147L14.5405 4.8016C14.5835 4.78543 14.6311 4.78682 14.6731 4.80549C14.7151 4.82415 14.7481 4.85858 14.7649 4.90135ZM14.7649 5.69322C14.7732 5.71447 14.7773 5.73716 14.7768 5.75997C14.7763 5.78278 14.7712 5.80527 14.762 5.82613C14.7528 5.847 14.7395 5.86583 14.723 5.88154C14.7064 5.89725 14.6869 5.90953 14.6656 5.91766L10.3623 7.57666C10.3411 7.58499 10.3185 7.58907 10.2957 7.58865C10.273 7.58823 10.2505 7.58333 10.2296 7.57423C10.2087 7.56513 10.1898 7.55201 10.174 7.53561C10.1582 7.51921 10.1458 7.49986 10.1375 7.47866C10.1291 7.45746 10.1251 7.43483 10.1255 7.41205C10.1259 7.38928 10.1308 7.36681 10.1399 7.34593C10.149 7.32505 10.1621 7.30616 10.1785 7.29035C10.1949 7.27454 10.2143 7.26212 10.2355 7.25379L14.5405 5.59304C14.5836 5.57691 14.6313 5.57843 14.6733 5.59727C14.7154 5.61611 14.7483 5.65074 14.7649 5.69366M13.3019 7.07441C13.3369 7.16366 13.3155 7.25685 13.2542 7.28004L10.3151 8.41316C10.2538 8.43679 10.1768 8.38254 10.141 8.29329C10.1073 8.20404 10.13 8.11085 10.1904 8.08766L13.1295 6.95541C13.189 6.93266 13.2682 6.98429 13.3019 7.07441Z" fill="#905A24"/>
<path d="M2.3125 22.8309C2.3125 22.8309 2.87338 24.9926 6.38737 24.4405L6.98544 22.9932L5.97481 21.8947L3.17525 20.9716L2.3125 22.8309Z" fill="#34484C"/>
<path d="M13.5113 18.7854C13.5113 19.5506 13.1175 19.7519 12.1235 20.1723L3.63775 23.7545C3.45548 23.7547 3.27497 23.7188 3.10655 23.6491C2.93812 23.5794 2.78509 23.4772 2.65621 23.3483C2.52732 23.2195 2.4251 23.0664 2.3554 22.898C2.2857 22.7296 2.24989 22.5491 2.25 22.3668V10.4454C2.25 9.67668 2.69975 9.42249 3.63775 9.05717L12.1235 5.47449C12.3057 5.47437 12.4861 5.51015 12.6544 5.57976C12.8227 5.64938 12.9757 5.75148 13.1046 5.88023C13.2334 6.00898 13.3357 6.16185 13.4055 6.33012C13.4752 6.49839 13.5112 6.67876 13.5113 6.86093V18.7854Z" fill="#1EA0CD"/>
<path d="M3.02084 23.6066C3.02084 23.6066 6.20234 24.5197 6.38566 24.4418C6.57203 24.3622 6.26753 23.0619 6.26753 23.0619L5.11691 21.8221L4.04678 21.7739L3.85866 22.0404L3.01953 23.6066" fill="#34484C"/>
<path d="M11.9241 6.29822L2.51172 10.255L2.95228 12.7881L4.35228 12.9281L9.03003 12.1743L11.9377 10.6513L14.0775 7.71966C13.6102 6.88141 12.9225 6.36166 11.925 6.29822" fill="#F4F5F5"/>
<path d="M5.00534 11.1313C5.00534 10.9104 5.04297 10.7314 5.11953 10.5809C4.15703 10.4917 3.24791 10.2134 2.58203 9.6145C2.36328 9.8175 2.25391 10.0695 2.25391 10.4458V22.3668C2.25379 22.549 2.28958 22.7294 2.35922 22.8978C2.42887 23.0661 2.53101 23.2191 2.6598 23.348C2.7886 23.4769 2.94152 23.5791 3.10985 23.6488C3.27817 23.7186 3.45858 23.7545 3.64078 23.7545L5.01016 23.177C5.00639 23.1367 5.0045 23.0963 5.00447 23.0558V11.1313H5.00534Z" fill="#34484C"/>
<path d="M16.5058 19.9574C16.5058 20.7235 16.1129 20.9243 15.1181 21.3443L6.38731 24.4409C6.01941 24.4406 5.66667 24.2942 5.40656 24.034C5.14646 23.7738 5.00023 23.4211 5 23.0532V11.1291C5 10.3635 5.4515 10.1088 6.38731 9.74221L15.1181 6.64734C15.3003 6.64722 15.4808 6.68304 15.6493 6.75274C15.8177 6.82244 15.9707 6.92466 16.0996 7.05355C16.2285 7.18243 16.3307 7.33546 16.4004 7.50388C16.4701 7.67231 16.5059 7.85281 16.5058 8.03509V19.9574Z" fill="#57C6E9"/>
<path d="M12.8896 10.287C12.9074 10.3335 12.9061 10.3851 12.8859 10.4306C12.8658 10.4761 12.8284 10.5118 12.7819 10.5298L8.14007 12.32C8.09363 12.338 8.04198 12.337 7.99629 12.3172C7.9506 12.2974 7.91455 12.2604 7.89595 12.2142C7.87809 12.1673 7.87948 12.1153 7.8998 12.0695C7.92013 12.0237 7.95774 11.9878 8.00444 11.9696L12.6463 10.1802C12.6927 10.1622 12.7444 10.1633 12.79 10.1833C12.8356 10.2033 12.8714 10.2406 12.8896 10.287ZM12.8896 11.1436C12.9071 11.19 12.9057 11.2414 12.8855 11.2867C12.8654 11.332 12.8281 11.3675 12.7819 11.3855L8.14007 13.1754C8.11706 13.1844 8.09249 13.1889 8.06776 13.1884C8.04304 13.188 8.01864 13.1827 7.99596 13.1728C7.97329 13.1629 7.95278 13.1487 7.93562 13.1309C7.91846 13.1131 7.90498 13.0921 7.89595 13.069C7.87815 13.0225 7.87959 12.9707 7.89993 12.9252C7.92028 12.8796 7.95787 12.8441 8.00444 12.8262L12.6463 11.036C12.6929 11.018 12.7446 11.0193 12.7902 11.0394C12.8358 11.0596 12.8716 11.0971 12.8896 11.1436ZM11.3111 12.6324C11.3478 12.7295 11.3251 12.8284 11.259 12.8529L8.08713 14.0757C8.02151 14.102 7.93882 14.0442 7.90076 13.948C7.86357 13.85 7.88588 13.7511 7.95194 13.7262L11.1234 12.5034C11.1903 12.4793 11.2739 12.5366 11.3111 12.6324Z" fill="#198BA9"/>
<path d="M10.0664 25.728C10.0664 25.728 10.6745 28.0621 14.4707 27.4649L15.1173 25.9021L14.0249 24.7161L11.0009 23.7181L10.0664 25.728Z" fill="#34484C"/>
<path d="M22.1629 21.3522C22.1629 22.1791 21.7386 22.3974 20.6641 22.8498L11.4984 26.7203C11.1011 26.7203 10.72 26.5625 10.439 26.2816C10.158 26.0007 10.0001 25.6197 10 25.2223V12.3419C10 11.5142 10.4861 11.2385 11.4984 10.8435L20.6641 6.9729C21.0615 6.97302 21.4426 7.13091 21.7236 7.41188C22.0047 7.69286 22.1627 8.07392 22.1629 8.47134V21.3522Z" fill="#78111F"/>
<path d="M10.832 26.5646C10.832 26.5646 14.2695 27.5494 14.4694 27.4645C14.6693 27.3797 14.3412 25.9757 14.3412 25.9757L13.0987 24.6361L11.9415 24.5823L11.7381 24.8719L10.8325 26.565" fill="#34484C"/>
<path d="M20.4479 7.86621L10.2773 12.1384L10.7551 14.8771L12.2688 15.0268L17.3185 14.2139L20.4597 12.5671L22.7719 9.40184C22.2653 8.49621 21.5237 7.93446 20.4453 7.86621" fill="#F4F5F5"/>
<path d="M12.9758 13.0852C12.9758 12.8467 13.0183 12.6542 13.0997 12.4902C12.0584 12.3939 11.0767 12.0929 10.3592 11.4463C10.122 11.6655 10.0039 11.9376 10.0039 12.3432V25.2232C10.004 25.42 10.0428 25.6149 10.1182 25.7967C10.1935 25.9786 10.304 26.1438 10.4432 26.2829C10.5824 26.422 10.7477 26.5324 10.9296 26.6077C11.1115 26.6829 11.3064 26.7217 11.5032 26.7216L12.982 26.0969C12.9783 26.0538 12.9763 26.0106 12.9758 25.9674V13.0852Z" fill="#34484C"/>
<path d="M25.3968 22.6248C25.3968 23.4517 24.9724 23.6687 23.8993 24.1228L14.4672 27.4662C14.0701 27.4665 13.6891 27.309 13.4081 27.0284C13.1271 26.7478 12.9691 26.3671 12.9688 25.97V13.0865C12.9688 12.2596 13.4548 11.9853 14.4672 11.5902L23.8997 8.24597C24.2967 8.24609 24.6774 8.40386 24.9582 8.6846C25.2389 8.96534 25.3967 9.34607 25.3968 9.7431V22.6248Z" fill="#BE202E"/>
<path d="M21.4941 12.1743C21.5039 12.1992 21.5086 12.2258 21.508 12.2526C21.5075 12.2793 21.5016 12.3056 21.4909 12.3301C21.4801 12.3546 21.4646 12.3767 21.4453 12.3952C21.4259 12.4136 21.4031 12.4281 21.3782 12.4377L16.3618 14.3706C16.3371 14.3804 16.3108 14.3851 16.2843 14.3847C16.2577 14.3842 16.2316 14.3785 16.2072 14.3679C16.1829 14.3573 16.161 14.342 16.1426 14.3228C16.1242 14.3037 16.1098 14.2811 16.1002 14.2564C16.0905 14.2317 16.0857 14.2052 16.0863 14.1786C16.0868 14.1521 16.0926 14.1258 16.1034 14.1015C16.1141 14.0772 16.1296 14.0552 16.1488 14.0369C16.1681 14.0186 16.1908 14.0043 16.2157 13.9948L21.2325 12.0597C21.2572 12.05 21.2836 12.0452 21.3101 12.0457C21.3367 12.0462 21.3628 12.0519 21.3872 12.0626C21.4115 12.0732 21.4335 12.0886 21.4518 12.1078C21.4702 12.127 21.4845 12.1496 21.4941 12.1743ZM21.4941 13.0988C21.5038 13.1235 21.5084 13.1499 21.5078 13.1765C21.5072 13.2031 21.5013 13.2292 21.4906 13.2535C21.4798 13.2778 21.4643 13.2997 21.445 13.318C21.4257 13.3363 21.403 13.3505 21.3782 13.36L16.3614 15.2942C16.3113 15.3134 16.2556 15.312 16.2066 15.2903C16.1575 15.2686 16.1191 15.2282 16.0997 15.1782C16.0803 15.128 16.0815 15.072 16.1031 15.0227C16.1248 14.9733 16.1651 14.9346 16.2152 14.9148L21.2321 12.9828C21.2569 12.973 21.2834 12.9682 21.3101 12.9687C21.3368 12.9692 21.3632 12.975 21.3876 12.9858C21.412 12.9966 21.4341 13.0121 21.4524 13.0315C21.4708 13.0509 21.4847 13.0738 21.4941 13.0988ZM19.7901 14.7088C19.8303 14.8129 19.8058 14.9205 19.7327 14.9472L16.3076 16.2689C16.2354 16.296 16.1452 16.2339 16.1054 16.1293C16.0647 16.0257 16.0897 15.9172 16.1623 15.8896L19.5875 14.5697C19.6579 14.5421 19.7481 14.6038 19.7901 14.7088Z" fill="#78111F"/>
</svg>
