<svg width="18" height="15" viewBox="0 0 18 15" fill="none" xmlns="http://www.w3.org/2000/svg">
<path fill-rule="evenodd" clip-rule="evenodd" d="M17.7746 1.73529C18.0333 1.52828 18.0753 1.15071 17.8683 0.891952C17.6613 0.633196 17.2837 0.591243 17.025 0.798248L14.3647 2.92645C13.0229 1.72143 11.3115 0.66677 9.3998 0.66677C7.68704 0.66677 6.13841 1.51396 4.8812 2.54334C3.61712 3.57833 2.58351 4.84968 1.88895 5.81717L1.83167 5.89683C1.41355 6.47781 1.06936 6.95606 1.06936 7.66672C1.06935 8.37739 1.41347 8.85556 1.83152 9.43645L1.88877 9.51608C2.32581 10.1249 2.89507 10.8511 3.5696 11.5625L1.02501 13.5982C0.766253 13.8052 0.7243 14.1828 0.931305 14.4415C1.13831 14.7003 1.51588 14.7423 1.77464 14.5352L17.7746 1.73529ZM9.3998 1.86677C10.822 1.86677 12.2017 2.6342 13.4136 3.68733L11.3203 5.362C10.8003 4.92839 10.1305 4.66676 9.3998 4.66676C7.74295 4.66676 6.39981 6.0099 6.39981 7.66675C6.39981 8.15905 6.51876 8.62438 6.72932 9.03476L4.51022 10.81C3.85341 10.1264 3.29421 9.41614 2.86359 8.81628C2.36456 8.12113 2.26935 7.95356 2.26936 7.66673C2.26936 7.37992 2.3646 7.21229 2.86376 6.51698C3.52717 5.59288 4.4906 4.41407 5.64141 3.47181C6.79909 2.52393 8.08319 1.86677 9.3998 1.86677ZM9.3998 5.86676C9.74876 5.86676 10.0744 5.9658 10.3505 6.13785L7.69927 8.2588C7.6348 8.07355 7.59981 7.87444 7.59981 7.66675C7.59981 6.67264 8.40569 5.86676 9.3998 5.86676Z" fill="#131724"/>
<path d="M16.1161 4.77937C15.9064 4.52279 15.5284 4.48478 15.2718 4.69447C15.0152 4.90417 14.9772 5.28216 15.1869 5.53874C15.4673 5.88183 15.7183 6.2139 15.9358 6.51692C16.435 7.21228 16.5303 7.37993 16.5303 7.66675C16.5303 7.95356 16.435 8.1212 15.9358 8.81652C15.2724 9.74062 14.309 10.9194 13.1582 11.8617C12.0005 12.8096 10.7164 13.4667 9.3998 13.4667C8.27596 13.4667 7.17435 12.9884 6.14984 12.2525C5.8807 12.0592 5.50581 12.1206 5.31249 12.3898C5.11918 12.6589 5.18065 13.0338 5.44979 13.2271C6.58941 14.0457 7.93387 14.6667 9.3998 14.6667C11.1126 14.6667 12.6612 13.8195 13.9184 12.7902C15.1825 11.7552 16.2161 10.4838 16.9106 9.51633L16.9679 9.43668C17.3861 8.85568 17.7302 8.37742 17.7302 7.66674C17.7302 6.95607 17.386 6.47779 16.9679 5.89677L16.9106 5.8171C16.6805 5.49653 16.4143 5.14431 16.1161 4.77937Z" fill="#131724"/>
<path d="M12.3998 7.66675C12.3998 7.33538 12.1312 7.06675 11.7998 7.06675C11.4684 7.06675 11.1998 7.33538 11.1998 7.66675C11.1998 8.66086 10.3939 9.46674 9.3998 9.46674C9.06843 9.46674 8.7998 9.73537 8.7998 10.0667C8.7998 10.3981 9.06843 10.6667 9.3998 10.6667C11.0566 10.6667 12.3998 9.3236 12.3998 7.66675Z" fill="#131724"/>
</svg>
