<svg width="17" height="15" viewBox="0 0 17 15" fill="none" xmlns="http://www.w3.org/2000/svg">
<path fill-rule="evenodd" clip-rule="evenodd" d="M8.92263 4.66675C7.3162 4.66675 6.01394 6.00989 6.01394 7.66675C6.01394 9.3236 7.3162 10.6667 8.92263 10.6667C10.5291 10.6667 11.8313 9.3236 11.8313 7.66675C11.8313 6.00989 10.5291 4.66675 8.92263 4.66675ZM7.17741 7.66675C7.17741 6.67264 7.95877 5.86675 8.92263 5.86675C9.88648 5.86675 10.6678 6.67264 10.6678 7.66675C10.6678 8.66086 9.88648 9.46675 8.92263 9.46675C7.95877 9.46675 7.17741 8.66086 7.17741 7.66675Z" fill="#131724"/>
<path fill-rule="evenodd" clip-rule="evenodd" d="M8.92263 0.666748C7.26199 0.666748 5.76049 1.51394 4.54154 2.54332C3.31593 3.57832 2.31378 4.84967 1.64036 5.81716L1.58482 5.89682C1.17942 6.47782 0.845703 6.95607 0.845703 7.66675C0.845703 8.37742 1.17942 8.85568 1.58482 9.43668L1.64036 9.51634C2.31378 10.4838 3.31593 11.7552 4.54154 12.7902C5.76049 13.8196 7.26199 14.6667 8.92263 14.6667C10.5833 14.6667 12.0848 13.8196 13.3037 12.7902C14.5293 11.7552 15.5315 10.4838 16.2049 9.51634L16.2604 9.43668C16.6658 8.85568 16.9995 8.37743 16.9995 7.66675C16.9995 6.95607 16.6658 6.47782 16.2604 5.89682L16.2049 5.81716C15.5315 4.84967 14.5293 3.57832 13.3037 2.54332C12.0848 1.51394 10.5833 0.666748 8.92263 0.666748ZM2.5855 6.51698C3.22872 5.59287 4.16283 4.41406 5.27862 3.4718C6.40106 2.52392 7.64608 1.86675 8.92263 1.86675C10.1992 1.86675 11.4442 2.52392 12.5666 3.4718C13.6824 4.41406 14.6165 5.59287 15.2597 6.51698C15.7437 7.2123 15.8361 7.37993 15.8361 7.66675C15.8361 7.95357 15.7437 8.1212 15.2598 8.81652C14.6165 9.74063 13.6824 10.9194 12.5666 11.8617C11.4442 12.8096 10.1992 13.4667 8.92263 13.4667C7.64608 13.4667 6.40106 12.8096 5.27862 11.8617C4.16283 10.9194 3.22872 9.74063 2.5855 8.81652C2.10152 8.1212 2.00918 7.95357 2.00918 7.66675C2.00918 7.37993 2.10152 7.2123 2.5855 6.51698Z" fill="#131724"/>
</svg>
