<svg width="32" height="32" viewBox="0 0 32 32" fill="none" xmlns="http://www.w3.org/2000/svg">
<path d="M13.3327 15.9997C11.866 15.9997 10.6105 15.4775 9.56602 14.433C8.52157 13.3886 7.99935 12.133 7.99935 10.6663C7.99935 9.19967 8.52157 7.94412 9.56602 6.89967C10.6105 5.85523 11.866 5.33301 13.3327 5.33301C14.7993 5.33301 16.0549 5.85523 17.0993 6.89967C18.1438 7.94412 18.666 9.19967 18.666 10.6663C18.666 12.133 18.1438 13.3886 17.0993 14.433C16.0549 15.4775 14.7993 15.9997 13.3327 15.9997ZM2.66602 23.9997V22.933C2.66602 22.1997 2.8549 21.5108 3.23268 20.8663C3.61046 20.2219 4.13268 19.733 4.79935 19.3997C6.08824 18.7552 7.42157 18.2495 8.79935 17.8823C10.1771 17.5152 11.5882 17.3321 13.0327 17.333C13.4105 17.333 13.7273 17.4663 13.9833 17.733C14.2393 17.9997 14.3669 18.3219 14.366 18.6997C14.3651 19.0775 14.2371 19.3943 13.982 19.6503C13.7269 19.9063 13.4105 20.0339 13.0327 20.033C11.7882 20.033 10.5825 20.1886 9.41535 20.4997C8.24824 20.8108 7.10957 21.2441 5.99935 21.7997C5.77713 21.9108 5.61046 22.0663 5.49935 22.2663C5.38824 22.4663 5.33268 22.6886 5.33268 22.933V23.9997H13.0327C13.4105 23.9997 13.7273 24.1277 13.9833 24.3837C14.2393 24.6397 14.3669 24.9561 14.366 25.333C14.3651 25.7099 14.2371 26.0268 13.982 26.2837C13.7269 26.5406 13.4105 26.6681 13.0327 26.6663H5.33268C4.59935 26.6663 3.97179 26.4055 3.45002 25.8837C2.92824 25.3619 2.6669 24.7339 2.66602 23.9997ZM21.1327 26.933L20.9327 25.9997C20.666 25.8886 20.4162 25.7721 20.1833 25.6503C19.9505 25.5286 19.7113 25.3783 19.466 25.1997L18.4993 25.4997C18.2105 25.5886 17.9273 25.5775 17.65 25.4663C17.3727 25.3552 17.1558 25.1775 16.9993 24.933L16.7327 24.4663C16.5771 24.1997 16.5216 23.9108 16.566 23.5997C16.6105 23.2886 16.7549 23.033 16.9993 22.833L17.7327 22.1997C17.6882 21.8886 17.666 21.5997 17.666 21.333C17.666 21.0663 17.6882 20.7775 17.7327 20.4663L16.9993 19.833C16.7549 19.633 16.6105 19.3828 16.566 19.0823C16.5216 18.7819 16.5771 18.4988 16.7327 18.233L17.0327 17.733C17.1882 17.4886 17.3993 17.3108 17.666 17.1997C17.9327 17.0886 18.2105 17.0775 18.4993 17.1663L19.466 17.4663C19.7105 17.2886 19.9496 17.1383 20.1833 17.0157C20.4171 16.893 20.6669 16.7766 20.9327 16.6663L21.1327 15.6997C21.1994 15.3886 21.3496 15.1388 21.5833 14.9503C21.8171 14.7619 22.0891 14.6672 22.3993 14.6663H22.9327C23.2438 14.6663 23.5162 14.7663 23.75 14.9663C23.9838 15.1663 24.1336 15.4219 24.1993 15.733L24.3993 16.6663C24.666 16.7775 24.9158 16.8997 25.1487 17.033C25.3816 17.1663 25.6207 17.333 25.866 17.533L26.766 17.233C27.0771 17.1219 27.3771 17.1219 27.666 17.233C27.9549 17.3441 28.1771 17.533 28.3327 17.7997L28.5993 18.2663C28.7549 18.533 28.8105 18.8219 28.766 19.133C28.7216 19.4441 28.5771 19.6997 28.3327 19.8997L27.5993 20.533C27.6438 20.7997 27.666 21.0775 27.666 21.3663C27.666 21.6552 27.6438 21.933 27.5993 22.1997L28.3327 22.833C28.5771 23.033 28.7216 23.2832 28.766 23.5837C28.8105 23.8841 28.7549 24.1672 28.5993 24.433L28.2994 24.933C28.1438 25.1775 27.9327 25.3552 27.666 25.4663C27.3993 25.5775 27.1216 25.5886 26.8327 25.4997L25.866 25.1997C25.6216 25.3775 25.3825 25.5272 25.1487 25.649C24.9149 25.7708 24.6651 25.8877 24.3993 25.9997L24.1993 26.9663C24.1327 27.2775 23.9829 27.5277 23.75 27.717C23.5171 27.9063 23.2447 28.0006 22.9327 27.9997H22.3993C22.0882 27.9997 21.8162 27.8997 21.5833 27.6997C21.3505 27.4997 21.2002 27.2441 21.1327 26.933ZM22.666 23.9997C23.3993 23.9997 24.0273 23.7388 24.55 23.217C25.0727 22.6952 25.3336 22.0672 25.3327 21.333C25.3318 20.5988 25.0709 19.9712 24.55 19.4503C24.0291 18.9295 23.4011 18.6681 22.666 18.6663C21.9309 18.6646 21.3034 18.9259 20.7833 19.4503C20.2633 19.9748 20.002 20.6023 19.9993 21.333C19.9967 22.0637 20.258 22.6917 20.7833 23.217C21.3087 23.7423 21.9362 24.0032 22.666 23.9997ZM13.3327 13.333C14.066 13.333 14.694 13.0721 15.2167 12.5503C15.7393 12.0286 16.0002 11.4006 15.9993 10.6663C15.9985 9.93212 15.7376 9.30456 15.2167 8.78367C14.6958 8.26279 14.0678 8.00145 13.3327 7.99967C12.5976 7.9979 11.97 8.25923 11.45 8.78367C10.93 9.30812 10.6687 9.93567 10.666 10.6663C10.6633 11.397 10.9247 12.025 11.45 12.5503C11.9753 13.0757 12.6029 13.3366 13.3327 13.333Z" fill="white" fill-opacity="0.6"/>
</svg>
