<svg width="14" height="15" viewBox="0 0 14 15" fill="none" xmlns="http://www.w3.org/2000/svg">
<path d="M13.8016 1.65643C14.0662 1.39188 14.0662 0.96296 13.8016 0.698412C13.5371 0.433863 13.1081 0.433863 12.8436 0.698412L7.00001 6.542L1.15643 0.698414C0.891878 0.433866 0.46296 0.433866 0.198412 0.698414C-0.0661372 0.962963 -0.0661372 1.39188 0.198412 1.65643L6.04199 7.50001L0.198436 13.3436C-0.0661128 13.6081 -0.0661128 14.037 0.198436 14.3016C0.462985 14.5661 0.891903 14.5661 1.15645 14.3016L7.00001 8.45803L12.8436 14.3016C13.1081 14.5661 13.537 14.5661 13.8016 14.3016C14.0661 14.037 14.0661 13.6081 13.8016 13.3436L7.95802 7.50001L13.8016 1.65643Z" fill="#131724"/>
</svg>
