<svg width="32" height="32" viewBox="0 0 32 32" fill="none" xmlns="http://www.w3.org/2000/svg">
<path d="M12.0007 28.0003C13.062 28.8297 14.4647 29.3337 16.0007 29.3337C17.5367 29.3337 18.9393 28.8297 20.0007 28.0003M3.37399 19.1923C3.08999 20.9963 4.35799 22.2483 5.90999 22.8723C11.8607 25.2657 20.1407 25.2657 26.0913 22.8723C27.6433 22.2483 28.9113 20.9963 28.6273 19.1923C28.454 18.083 27.5913 17.1603 26.9527 16.259C26.1167 15.063 26.034 13.7603 26.0327 12.3723C26.034 7.01366 21.5433 2.66699 16.0007 2.66699C10.458 2.66699 5.96732 7.01366 5.96732 12.3737C5.96732 13.7603 5.88466 15.0643 5.04732 16.259C4.40999 17.1603 3.54866 18.083 3.37399 19.1923Z" stroke="white" stroke-opacity="0.6" stroke-width="2" stroke-linecap="round" stroke-linejoin="round"/>
</svg>
