<svg width="22" height="23" viewBox="0 0 22 23" fill="none" xmlns="http://www.w3.org/2000/svg">
<g clip-path="url(#clip0_2520_570)">
<path d="M10.982 21.7178C16.6276 21.7178 21.2042 17.1411 21.2042 11.4955C21.2042 5.84996 16.6276 1.27332 10.982 1.27332C5.33641 1.27332 0.759766 5.84996 0.759766 11.4955C0.759766 17.1411 5.33641 21.7178 10.982 21.7178Z" fill="#FBF9F7" stroke="#575757"/>
<mask id="path-2-inside-1_2520_570" fill="white">
<path d="M11.001 3.93958V11.4951V3.93958ZM13.5708 15.9662L11.005 11.5218L13.5708 15.9662Z"/>
</mask>
<path d="M11.001 3.93958V11.4951V3.93958ZM13.5708 15.9662L11.005 11.5218L13.5708 15.9662Z" fill="#FBF9F7"/>
<path d="M11.001 3.93958H10.501V11.4951H11.001H11.501V3.93958H11.001ZM13.5708 15.9662L14.0038 15.7163L11.438 11.2718L11.005 11.5218L10.572 11.7718L13.1377 16.2162L13.5708 15.9662Z" fill="#575757" mask="url(#path-2-inside-1_2520_570)"/>
<path d="M10.982 21.7178C16.6276 21.7178 21.2042 17.1411 21.2042 11.4955C21.2042 5.84996 16.6276 1.27332 10.982 1.27332C5.33641 1.27332 0.759766 5.84996 0.759766 11.4955C0.759766 17.1411 5.33641 21.7178 10.982 21.7178Z" stroke="#575757" stroke-width="0.5" stroke-miterlimit="10" stroke-linecap="round" stroke-linejoin="round"/>
<path d="M11.001 3.93958V11.4951M15.001 15.5178L11.005 11.5218" stroke="#575757" stroke-miterlimit="10" stroke-linecap="round" stroke-linejoin="round"/>
</g>
<defs>
<clipPath id="clip0_2520_570">
<rect width="22" height="23" fill="white"/>
</clipPath>
</defs>
</svg>
