<svg width="22" height="22" viewBox="0 0 22 22" fill="none" xmlns="http://www.w3.org/2000/svg">
<path d="M20.1739 5.81201C20.7026 5.28344 20.9997 4.56648 20.9998 3.81887C20.9999 3.07125 20.703 2.35422 20.1744 1.82551C19.6459 1.29681 18.9289 0.999728 18.1813 0.999634C17.4337 0.99954 16.7166 1.29644 16.1879 1.82501L2.84193 15.174C2.60975 15.4055 2.43805 15.6905 2.34193 16.004L1.02093 20.356C0.99509 20.4425 0.993138 20.5344 1.01529 20.6219C1.03743 20.7094 1.08285 20.7892 1.14673 20.853C1.21061 20.9168 1.29055 20.9621 1.37809 20.9841C1.46563 21.0061 1.55749 21.004 1.64393 20.978L5.99693 19.658C6.3101 19.5628 6.59511 19.3921 6.82693 19.161L20.1739 5.81201Z" stroke="url(#paint0_linear_2520_657)" stroke-width="2" stroke-linecap="round" stroke-linejoin="round"/>
<defs>
<linearGradient id="paint0_linear_2520_657" x1="16.0908" y1="-6.5002" x2="-3.13708" y2="-0.427967" gradientUnits="userSpaceOnUse">
<stop stop-color="#4E61EC"/>
<stop offset="0.504808" stop-color="#621DAC"/>
<stop offset="1" stop-color="#401795"/>
</linearGradient>
</defs>
</svg>
