<svg width="32" height="32" viewBox="0 0 32 32" fill="none" xmlns="http://www.w3.org/2000/svg">
<path d="M16 16V8M9.33333 18.6667V8M22.6667 21.3333V8M7.2 4H24.8C25.6487 4 26.4626 4.33714 27.0627 4.93726C27.6629 5.53737 28 6.35131 28 7.2V24.8C28 25.6487 27.6629 26.4626 27.0627 27.0627C26.4626 27.6629 25.6487 28 24.8 28H7.2C6.35131 28 5.53737 27.6629 4.93726 27.0627C4.33714 26.4626 4 25.6487 4 24.8V7.2C4 6.77977 4.08277 6.36365 4.24359 5.97541C4.4044 5.58717 4.64011 5.23441 4.93726 4.93726C5.53737 4.33714 6.35131 4 7.2 4Z" stroke="white" stroke-opacity="0.6" stroke-width="2" stroke-miterlimit="10" stroke-linecap="round" stroke-linejoin="round"/>
</svg>
