<svg width="36" height="37" viewBox="0 0 36 37" fill="none" xmlns="http://www.w3.org/2000/svg">
<g clip-path="url(#clip0_7241_1532)">
<path d="M12.6 12.5346C12.9007 12.5261 13.2001 12.578 13.4804 12.6872C13.7607 12.7964 14.0163 12.9607 14.232 13.1704C14.4477 13.3801 14.6191 13.6309 14.7362 13.908C14.8533 14.1851 14.9136 14.4829 14.9136 14.7837C14.9136 15.0845 14.8533 15.3823 14.7362 15.6594C14.6191 15.9365 14.4477 16.1874 14.232 16.397C14.0163 16.6067 13.7607 16.771 13.4804 16.8802C13.2001 16.9894 12.9007 17.0413 12.6 17.0328C12.0033 17.0328 11.431 16.7958 11.009 16.3738C10.5871 15.9518 10.35 15.3795 10.35 14.7828C10.35 14.1861 10.5871 13.6138 11.009 13.1918C11.431 12.7699 12.0033 12.5328 12.6 12.5328M23.4 12.5328C23.7007 12.5243 24.0001 12.5762 24.2804 12.6854C24.5607 12.7946 24.8163 12.9589 25.032 13.1686C25.2477 13.3783 25.4191 13.6291 25.5362 13.9062C25.6533 14.1833 25.7136 14.4811 25.7136 14.7819C25.7136 15.0827 25.6533 15.3805 25.5362 15.6576C25.4191 15.9347 25.2477 16.1856 25.032 16.3952C24.8163 16.6049 24.5607 16.7692 24.2804 16.8784C24.0001 16.9876 23.7007 17.0395 23.4 17.031C22.8145 17.0144 22.2586 16.7702 21.8503 16.3502C21.442 15.9303 21.2136 15.3676 21.2136 14.7819C21.2136 14.1962 21.442 13.6336 21.8503 13.2136C22.2586 12.7936 22.8145 12.5494 23.4 12.5328ZM11.25 23.7828C10.892 23.7828 10.5486 23.925 10.2954 24.1782C10.0422 24.4314 9.9 24.7748 9.9 25.1328C9.9 25.4909 10.0422 25.8342 10.2954 26.0874C10.5486 26.3406 10.892 26.4828 11.25 26.4828H24.75C25.108 26.4828 25.4514 26.3406 25.7046 26.0874C25.9578 25.8342 26.1 25.4909 26.1 25.1328C26.1 24.7748 25.9578 24.4314 25.7046 24.1782C25.4514 23.925 25.108 23.7828 24.75 23.7828H11.25ZM0 18.3828C0 8.44141 8.0586 0.382812 18 0.382812C27.9414 0.382812 36 8.44141 36 18.3828C36 28.3242 27.9414 36.3828 18 36.3828C8.0586 36.3828 0 28.3242 0 18.3828ZM18 3.08281C13.9422 3.08281 10.0506 4.69477 7.18127 7.56408C4.31196 10.4334 2.7 14.325 2.7 18.3828C2.7 22.4406 4.31196 26.3322 7.18127 29.2015C10.0506 32.0709 13.9422 33.6828 18 33.6828C22.0578 33.6828 25.9494 32.0709 28.8187 29.2015C31.688 26.3322 33.3 22.4406 33.3 18.3828C33.3 14.325 31.688 10.4334 28.8187 7.56408C25.9494 4.69477 22.0578 3.08281 18 3.08281Z" fill="black"/>
</g>
<defs>
<clipPath id="clip0_7241_1532">
<rect width="36" height="36" fill="white" transform="translate(0 0.382812)"/>
</clipPath>
</defs>
</svg>
