<svg width="32" height="32" viewBox="0 0 32 32" fill="none" xmlns="http://www.w3.org/2000/svg">
<path d="M27.1334 11.8977L26.6454 11.6257L26.4948 11.5404C26.1313 11.3222 25.825 11.0206 25.6014 10.6604C25.5774 10.6244 25.5561 10.5857 25.5134 10.5111C25.226 10.0496 25.0864 9.51136 25.1134 8.96839L25.1214 8.40172C25.1374 7.49506 25.1454 7.03906 25.0174 6.63106C24.9042 6.26805 24.7146 5.93345 24.4614 5.64972C24.1761 5.32972 23.7801 5.10039 22.9868 4.64439L22.3281 4.26439C21.5388 3.80972 21.1428 3.58172 20.7228 3.49506C20.3517 3.41827 19.9685 3.42145 19.5988 3.50439C19.1814 3.59772 18.7908 3.83239 18.0108 4.29906L18.0068 4.30172L17.5348 4.58306C17.4601 4.62839 17.4214 4.64972 17.3841 4.67106C17.0134 4.87772 16.6001 4.99106 16.1748 5.00439C16.1321 5.00706 16.0881 5.00706 16.0014 5.00706L15.8281 5.00572C15.4026 4.99217 14.9866 4.87696 14.6148 4.66972C14.5774 4.64972 14.5414 4.62706 14.4668 4.58172L13.9908 4.29639C13.2054 3.82439 12.8121 3.58972 12.3921 3.49506C12.021 3.41199 11.6364 3.40926 11.2641 3.48706C10.8428 3.57506 10.4481 3.80439 9.65744 4.26306L9.65344 4.26439L9.00277 4.64172L8.99611 4.64706C8.21211 5.10039 7.81877 5.32972 7.53611 5.64839C7.28421 5.93158 7.09557 6.26522 6.98277 6.62706C6.85611 7.03639 6.86277 7.49239 6.87877 8.40439L6.88811 8.96972C6.88811 9.05639 6.89211 9.09906 6.89077 9.14039C6.88387 9.62482 6.74512 10.0982 6.48944 10.5097C6.44544 10.5844 6.42544 10.6217 6.40277 10.6564C6.17796 11.0193 5.86931 11.3229 5.50277 11.5417L5.35344 11.6257L4.87211 11.8924C4.06944 12.3364 3.66811 12.5591 3.37744 12.8764C3.11901 13.1562 2.92352 13.4881 2.80411 13.8497C2.67077 14.2591 2.67077 14.7164 2.67211 15.6337L2.67477 16.3844C2.67611 17.2951 2.67877 17.7497 2.81344 18.1564C2.93235 18.5158 3.12643 18.8458 3.38277 19.1244C3.67344 19.4391 4.07077 19.6604 4.86677 20.1031L5.34411 20.3684C5.42544 20.4137 5.46677 20.4351 5.50544 20.4591C5.92327 20.7095 6.26451 21.0697 6.49211 21.5004L6.58144 21.6604C6.80666 22.0856 6.91262 22.5638 6.88811 23.0444L6.87877 23.5871C6.86277 24.5017 6.85611 24.9604 6.98411 25.3697C7.09744 25.7324 7.28677 26.0671 7.54011 26.3511C7.82544 26.6711 8.22277 26.8991 9.01477 27.3564L9.67344 27.7364C10.4641 28.1911 10.8588 28.4191 11.2788 28.5057C11.6498 28.5825 12.033 28.5793 12.4028 28.4964C12.8214 28.4031 13.2121 28.1684 13.9948 27.6991L14.4668 27.4164L14.6174 27.3284C14.9881 27.1231 15.4014 27.0084 15.8268 26.9951L16.0001 26.9937H16.1734C16.5974 27.0071 17.0134 27.1231 17.3868 27.3297L17.5094 27.4031L18.0108 27.7044C18.7974 28.1764 19.1894 28.4111 19.6094 28.5044C19.9804 28.5883 20.365 28.592 20.7374 28.5151C21.1574 28.4271 21.5548 28.1964 22.3454 27.7377L23.0054 27.3551C23.7894 26.8991 24.1828 26.6711 24.4654 26.3524C24.7188 26.0684 24.9054 25.7351 25.0188 25.3737C25.1454 24.9671 25.1388 24.5151 25.1228 23.6164L25.1121 23.0297V22.8604C25.1184 22.3756 25.2567 21.9018 25.5121 21.4897L25.5988 21.3431C25.8236 20.9802 26.1322 20.6765 26.4988 20.4577L26.6454 20.3764L26.6481 20.3751L27.1294 20.1084C27.9321 19.6631 28.3334 19.4417 28.6254 19.1244C28.8841 18.8444 29.0788 18.5111 29.1974 18.1511C29.3308 17.7444 29.3308 17.2884 29.3281 16.3817L29.3254 15.6164C29.3241 14.7057 29.3228 14.2497 29.1881 13.8431C29.0686 13.484 28.8741 13.1545 28.6174 12.8764C28.3281 12.5617 27.9308 12.3404 27.1361 11.8991L27.1334 11.8977Z" stroke="white" stroke-opacity="0.6" stroke-width="2" stroke-linecap="round" stroke-linejoin="round"/>
<path d="M10.666 16.0003C10.666 17.4148 11.2279 18.7714 12.2281 19.7716C13.2283 20.7718 14.5849 21.3337 15.9993 21.3337C17.4138 21.3337 18.7704 20.7718 19.7706 19.7716C20.7708 18.7714 21.3327 17.4148 21.3327 16.0003C21.3327 14.5858 20.7708 13.2293 19.7706 12.2291C18.7704 11.2289 17.4138 10.667 15.9993 10.667C14.5849 10.667 13.2283 11.2289 12.2281 12.2291C11.2279 13.2293 10.666 14.5858 10.666 16.0003Z" stroke="white" stroke-opacity="0.6" stroke-width="2" stroke-linecap="round" stroke-linejoin="round"/>
</svg>
