<svg width="32" height="32" viewBox="0 0 32 32" fill="none" xmlns="http://www.w3.org/2000/svg">
<path d="M10.6648 21.3337H15.9981M10.6648 14.667H21.3314M10.0008 4.66699C7.92611 4.72966 6.69011 4.96033 5.83411 5.81633C4.66211 6.98966 4.66211 8.87633 4.66211 12.651V21.3257C4.66211 25.1017 4.66211 26.9883 5.83411 28.1617C7.00478 29.3337 8.89144 29.3337 12.6621 29.3337H19.3288C23.1008 29.3337 24.9861 29.3337 26.1568 28.1603C27.3301 26.9883 27.3301 25.1017 27.3301 21.3257V12.651C27.3301 8.87766 27.3301 6.98966 26.1568 5.81633C25.3021 4.96033 24.0648 4.72966 21.9901 4.66699" stroke="white" stroke-opacity="0.6" stroke-width="2" stroke-linecap="round" stroke-linejoin="round"/>
<path d="M9.99609 5.00033C9.99609 3.71233 11.0414 2.66699 12.3294 2.66699H19.6628C20.2816 2.66699 20.8751 2.91282 21.3127 3.35041C21.7503 3.78799 21.9961 4.38149 21.9961 5.00033C21.9961 5.61916 21.7503 6.21266 21.3127 6.65024C20.8751 7.08783 20.2816 7.33366 19.6628 7.33366H12.3294C11.7106 7.33366 11.1171 7.08783 10.6795 6.65024C10.2419 6.21266 9.99609 5.61916 9.99609 5.00033Z" stroke="white" stroke-opacity="0.6" stroke-width="2" stroke-linecap="round" stroke-linejoin="round"/>
</svg>
