<svg width="32" height="32" viewBox="0 0 32 32" fill="none" xmlns="http://www.w3.org/2000/svg">
<path d="M28 26.667C28 24.3443 25.7733 22.3697 22.6667 21.6363M20 26.667C20 23.7203 16.4187 21.3337 12 21.3337C7.58133 21.3337 4 23.7203 4 26.667M20 17.3337C21.4145 17.3337 22.771 16.7718 23.7712 15.7716C24.7714 14.7714 25.3333 13.4148 25.3333 12.0003C25.3333 10.5858 24.7714 9.22928 23.7712 8.22909C22.771 7.2289 21.4145 6.66699 20 6.66699M12 17.3337C10.5855 17.3337 9.22896 16.7718 8.22876 15.7716C7.22857 14.7714 6.66667 13.4148 6.66667 12.0003C6.66667 10.5858 7.22857 9.22928 8.22876 8.22909C9.22896 7.2289 10.5855 6.66699 12 6.66699C13.4145 6.66699 14.771 7.2289 15.7712 8.22909C16.7714 9.22928 17.3333 10.5858 17.3333 12.0003C17.3333 13.4148 16.7714 14.7714 15.7712 15.7716C14.771 16.7718 13.4145 17.3337 12 17.3337Z" stroke="white" stroke-opacity="0.6" stroke-width="2" stroke-linecap="round" stroke-linejoin="round"/>
</svg>
